<?xml version="1.0" encoding="UTF-8"?>
<svg xmlns="http://www.w3.org/2000/svg" xmlns:xlink="http://www.w3.org/1999/xlink" viewBox="0 0 1768.64 1524.99">
  <defs>
    <style>
      .cls-1 {
        fill: url(#linear-gradient-2);
        fill-opacity: .5;
        mix-blend-mode: color-burn;
      }

      .cls-1, .cls-2 {
        isolation: isolate;
      }

      .cls-3 {
        fill: #007afd;
      }

      .cls-4 {
        fill: url(#linear-gradient-3);
      }

      .cls-5 {
        fill: url(#linear-gradient-4);
        fill-rule: evenodd;
      }

      .cls-6 {
        fill: url(#linear-gradient);
      }
    </style>
    <linearGradient id="linear-gradient" x1="-237.58" y1="1082.05" x2="1900.1" y2="839.57" gradientTransform="translate(0 1618.98) scale(1 -1)" gradientUnits="userSpaceOnUse">
      <stop offset="0" stop-color="#f8efd8"/>
      <stop offset=".1" stop-color="#007afd"/>
      <stop offset=".37" stop-color="#0049b7"/>
      <stop offset="1" stop-color="#000a5d"/>
    </linearGradient>
    <linearGradient id="linear-gradient-2" x1="884.32" y1="1703.82" x2="884.32" y2="221.51" gradientTransform="translate(0 1618.98) scale(1 -1)" gradientUnits="userSpaceOnUse">
      <stop offset=".46" stop-color="#000a5d"/>
      <stop offset=".67" stop-color="#0015c3"/>
      <stop offset=".79" stop-color="#4da3ff"/>
    </linearGradient>
    <linearGradient id="linear-gradient-3" x1="27.44" y1="553.11" x2="1767.79" y2="243.25" gradientTransform="translate(0 1618.98) scale(1 -1)" gradientUnits="userSpaceOnUse">
      <stop offset="0" stop-color="#007afd"/>
      <stop offset="1" stop-color="#f8efd8"/>
    </linearGradient>
    <linearGradient id="linear-gradient-4" x1="-223.94" y1="652.12" x2="1563.42" y2="313.58" gradientTransform="translate(0 1618.98) scale(1 -1)" gradientUnits="userSpaceOnUse">
      <stop offset="0" stop-color="#f8efd8"/>
      <stop offset=".06" stop-color="#d9e0dc"/>
      <stop offset=".2" stop-color="#98c1e6"/>
      <stop offset=".34" stop-color="#62a8ee"/>
      <stop offset=".47" stop-color="#3794f4"/>
      <stop offset=".58" stop-color="#1985f9"/>
      <stop offset=".67" stop-color="#067dfc"/>
      <stop offset=".74" stop-color="#007afd"/>
    </linearGradient>
  </defs>
  <g class="cls-2">
    <g id="Layer_2" data-name="Layer 2">
      <g id="Layer_1-2" data-name="Layer 1">
        <path class="cls-6" d="M894.25,1138.49c-363.5-34.5-608.5,18.5-894.11,86L8.7.1l1724.59-.1,35.35,1524.99c-67.9-129.6-430.7-344.39-874.39-386.5Z"/>
        <path class="cls-1" d="M8.7.1l1724.59-.1,35.35,1524.99c-32.51-61.27-129.8-133.92-197.87-173.47-204.77-118.98-420.8-176.7-557.79-197.96-236.84-36.75-452.38-25.26-535.32-16.72C277.34,1157.45,0,1224.27,0,1224.27L8.7.1Z" shape-rendering="crispEdges"/>
        <g>
          <path class="cls-3" d="M1765.04,1383.59c-120.07-82.17-330.39-193.38-620.28-246.13-448.82-81.68-870.58-28.33-1144.39,30.69l-.06-19.79c165.67-35.71,331.38-58.46,498.47-67.81,225.76-12.65,444.31-.11,649.56,37.24,133.42,24.28,261.47,62.93,380.62,114.9,87.47,38.15,163.12,82.53,235.59,132.13l.49,18.79Z"/>
          <path class="cls-3" d="M1766.73,1449.18c-165.11-115.63-428.23-266.1-718.14-323.69-287-57.01-575.85-36.43-767.62-9.12C72.99,1145.99,1.63,1170.44.22,1170.88v-12.38c1.42-.44,69.24-27.14,278.32-56.93,122.79-17.5,244.16-26.76,360.74-27.55,145.81-.98,284.5,11.39,412.23,36.76,133.14,26.45,272.25,75.08,413.49,144.55,103.44,50.88,202.51,112.1,301.38,181.34l.35,12.51Z"/>
          <path class="cls-4" d="M1766.02,1421.78c-98.08-68.39-227.05-136.13-368.94-201.8-318.08-147.22-690.31-138.84-946.56-105.88C172.5,1149.86,2.35,1212.22.31,1212.93v-19.4c2.06-.72,167.56-63.24,447.66-99.27,164.59-21.17,321.95-25.92,467.72-14.11,182.52,14.79,347.32,55.72,489.8,121.67,142.94,66.16,261.11,133.79,360.15,202.85l.38,17.11Z"/>
          <path class="cls-5" d="M.46,1041.86c33.74-6.04,69.03-12.51,106.82-17.88,253.35-36.02,600.77-39.22,941.45,44.43,191.54,47.03,378.31,160.57,518.6,256.75,29.05,19.92,199.89,144.75,200,148.81.2,7.34.32,12.83.32,12.83,0,0-22.4-14.25-27.8-18.92-10.79-9.35-56.48-42.82-83.17-63.03-2.93-2.22-5.89-4.45-8.9-6.71-.11-.08-.22-.16-.33-.25-26.88-20.17-56.92-41.9-89.55-64.27-139.64-95.74-325.93-202.58-514.02-248.77-337.3-82.83-673.24-67.85-925.1-32.05-42.22,6-81.3,12.66-118.38,19.46"/>
        </g>
      </g>
    </g>
  </g>
</svg>