<?xml version="1.0" encoding="UTF-8"?>
<svg id="Layer_2" data-name="Layer 2" xmlns="http://www.w3.org/2000/svg" viewBox="0 0 599.91 183.84">
  <defs>
    <style>
      .cls-1 {
        fill: #b5d1ee;
      }
    </style>
  </defs>
  <g id="Layer_1-2" data-name="Layer 1">
    <path class="cls-1" d="M6.92,171.65c.76-.44,3.97-1.92,4.62-1.92h25l-.35-48.22,1.71-.02v1.8h.93v-1.78l1.9.02c0,1.52-.02.45-.02,1.78h1.16l.02-1.85h1.77s.03,1.85.03,1.85h1.07c0-.29.02-.77.02-1.5v-.39h1.74v1.89h1.38v-2s1.98-.03,1.98-.03l.03,1.95h1.38s.04-10.22.04-12.39v-2.59c0-1,.02-1.68.02-2.62h2.42v1.73h1.03v-1.73h1.73v1.73h1.03v-1.73h2.41v12.64c.85,0,1.16,0,2.17-.07,0-.92-.07-2.01.09-1.83h0c.44,0,1.41-.02,2.4-.02,0,.09,0,.18,0,.26.01.58.01.93.01,1.47l.88-.04.02-1.76,2.2-.04.48,1.78c-.44-2.2,1.14-1.57,2.07-2.97.86,1.36,2.5.4,2.07,2.97l.34-1.72,2.32.03.02,1.72.77.02.02-1.45,3.34.04.07,1.45,1.38.02.03-12.52h2.39c0,.51.04,1.17.04,1.76,0,0,.21-.03.65-.03v-1.72h2.07v1.73h1.03s.03-1.72.03-1.72h2.38v17.45s.48-.01,1.19-.01l.05-2.18,2.06-.04v2.13h1.11l-.03-2.08h1.85l.05,2.01h.99v-2.01h1.77v2l1.06.02.02-2.01h1.8l.02,2.03.88-.02.03-2.01h1.3V23.82c0-.33-.39-1.63-1.03-3.62h11.72l.19-12.04c0-.1-.48-.6-.21-.87l16.39-7.29,16.71,7.13c.13.35-.34.71-.34.84v12.23h11.81l-1.14,4.29.02,32.92h5.86c.1-1.04-.01-1.91-.01-3.1h24.13v3.1h18.95l.03,58.76.03,2.79.98-2.31,2.22-5.86,4.33-.34c-.48-1.76.53-3.19.7-4.64.62-5.37-.48-11.91-.01-17.41-1.46.2-1.72,2.16-3.44,1.72-.8-3.38,3.27-5.08,3.45-8.27l.68,28.59,4.67.33-.05,1.38,5.72,12.06c.5.26.49-3.96,1.37-2.75l1.02,4.63,3.14.04c.72-.5.08-2.86,1.35-2.6l1.26,2.7h5.76s1.42-2.7,1.42-2.7l1.44,2.77c1.48-.27,5.43.54,6.34-.51.52-.59.41-1.96,1.35-2.26l.73,2.72,2.72.03c.07-.98-.6-1.59-.7-2.58-.14-1.31.39-2.31.37-3.43-.04-2.36-1.19-4.74-.68-7.58,1.17-6.54,6.76-15.85,7.82-22.49.39-2.44-.31-5.46.08-8.01.42-.54.63,0,.69.51.29,2.42-.28,5.19.08,7.51,1.05,6.75,6.17,15.51,7.77,22.23.18.73.05,1.15-.27,1.79.44.45,3.67-3.06,3.79-3.79h9.65v-8.33c0-2.61,2.57-3.68,2.77-5.27.9-7.36-.71-15.72-.73-23.09,0-3.12,1.78-6.46,1.06-9.82h1.37c.01-6.52,3.29-12.65,9.66-14.82-1.13-1.13-1.52-2.16-1.52-5.72l1.52-.13c0-2.15.03-6.22.01-7.89-.03-3.2-.01-4.56-.01-6.27,0-.55.89-.5,1.22-1.29l2.38-11.42c.84,4.42,1.59,7.39,2.41,11.42.15.76,1.16.73,1.16,1.32,0,1.16-.01,5.19-.03,6.37-.02,1.24.1,6.24.1,7.76l1.73.18c0,2.36.32,3.51-1.38,5.49,1.37.98,2.99,1.5,4.3,2.61,3.28,2.8,5.33,8.13,5,12.4h1.38c.12,1.36-.19,2.95.02,4.28.18,1.13.89,1.94,1.03,3.45.76,8.31-.93,16.93-.66,25.18.04,1.16,2.55,3.47,2.55,5.16,0,.99.15,3.38.15,4.32,0,1.44.01,2.15.01,4.11h9.48l3.96,3.79c.01-.72-.09-1.44.09-2.15,2.23-8.48,7.95-17.36,7.62-26.22l.55-3.67c.38,2.42-.28,5.35.09,7.67,1.07,6.7,6.94,16.26,7.81,22.85.39,2.91-.52,8.15-.63,11.36-.03.77-.02,1.45-.03,2.22,1.38,0,2.6.04,2.6.04.33-.66.61-1.59,1.01-2.79l1.09,2.77,6.62-.06,1.12-2.63,1.23,2.69,6.09-.06,1.21-2.65,1.4,2.54h3.13s1.02-4.66,1.02-4.66c1.43.38-.13,3,1.37,2.76,1.14-4.63,5.09-8.61,5.52-13.44h4.81c.07-.94-.04-1.9.07-2.91.47-4.37.33-9.87.33-14.49,0-1.65-.93-3.36-.03-4.99-1.46.19-1.7,2.21-3.4,2.14-.65-2.64.69-3.24,1.62-4.78.75-1.24,1.21-2.82,2.12-3.91l.4,28.98c.99,0,3.74,0,4.38,0,.1.68-.03,1.36.2,2.03,1.24,3.57,3.86,7.63,5.38,11.21.81.22.77-.86.86-1.17.16-.58.02-1.26.84-1.44-.06,4.05,1.75,8.23,1.75,12.23,0,1-.38,1.84-.38,2.74,0,3.62.02,7.25.01,10.87h103.07c0-.61-.03-.68-.03-1.19,0-6.11,0-15.97,0-22.08,0-1.4-.65-3.1-.7-4.47-.1-2.56.03-8.46.03-11.03,0-.22-.31-.53-.37-1.35,1.88-5.83,9.1-14.38,8.91-20.31-.06-1.94-1.5-2.76.55-4.34,1.8,1.51.54,2.71.52,4.3-.1,6.09,6.43,14.1,8.82,19.8.47.59-.2,1.32-.2,1.56v7.41l3.05-.05c0-1.26.05-1.57.05-2.7h4.14v-3.79h7.58v3.79h3.79s0,2.76,0,2.76h3.29c.32-.45.17-7.14.17-8.13,0-.35-.58-.74-.16-1.45.97-1.63,4.68-7.76,5.72-9.82,1.93-3.78,3.15-5.19,3.01-9.68-.04-1.47-1.41-2.44.55-3.83,1.24,1.66.48,2.26.48,3.83.01,5.67,6.12,14.39,8.76,18.79.75,1.28,0,1.05,0,2.25,0,3.57.09,7.86.09,11.44,0,1.85-.91,3.52-.91,4.66,0,15.31.36,30.63.01,45.94,2.22,0,4.51.09,6.31.09,7.49,0,14.44-.66,21.79-.03,7.01.6,12.9,7.08,12.56,14.14H0c.22-4.93,2.61-9.7,6.92-12.2h0ZM556.32,107.91h.79v-2.72h-.79v2.72ZM554.73,107.91h.79v-2.72h-.79v2.72ZM551.41,107.91h.79v-2.72h-.79v2.72ZM549.81,107.91h.79v-2.72h-.79v2.72ZM546.22,107.91h.79v-2.72h-.79v2.72ZM544.63,107.91h.79v-2.72h-.79v2.72ZM537.06,123.55h-.56v2.27h.56v-2.27ZM537.46,132.54h-1.05v1.4h1.05v-1.4ZM538.2,123.55h-.56v2.27h.56v-2.27ZM540.84,162.82h.71v-2.86h-.71v2.86ZM539.41,162.82h.71v-2.86h-.71v2.86ZM538.8,150.59h.83v-1.17h-.83v1.17ZM538.8,149.18h.83v-.34h-.83v.34ZM538.8,148.59h.83v-3.03h-.83v3.03ZM538.8,145.32h.83v-.34h-.83v.34ZM538.8,144.73h.83v-2.45h-.83v2.45ZM538.8,142.03h.83v-.34h-.83v.34ZM538.8,141.44h.83v-1.12h-.83v1.12ZM538.77,125.82h.56v-2.27h-.56v2.27ZM537.98,162.82h.71v-2.86h-.71v2.86ZM537.41,150.59h1.14v-1.17h-1.14v1.17ZM537.41,149.18h1.14v-.34h-1.14v.34ZM537.41,148.59h1.14v-3.03h-1.14v3.03ZM537.41,145.32h1.14v-.34h-1.14v.34ZM537.41,144.73h1.14v-2.45h-1.14v2.45ZM537.41,142.03h1.14v-.34h-1.14v.34ZM537.41,141.44h1.14v-1.12h-1.14v1.12ZM536.55,162.82h.71v-2.86h-.71v2.86ZM536.03,150.59h1.14v-1.17h-1.14v1.17ZM536.03,149.18h1.14v-.34h-1.14v.34ZM536.03,148.59h1.14v-3.03h-1.14v3.03ZM536.03,145.32h1.14v-.34h-1.14v.34ZM536.03,144.73h1.14v-2.45h-1.14v2.45ZM536.03,142.03h1.14v-.34h-1.14v.34ZM536.03,141.44h1.14v-1.12h-1.14v1.12ZM535.92,123.55h-.56v2.27h.56v-2.27ZM535.03,150.59h.76v-1.17h-.76v1.17ZM535.03,149.18h.76v-.34h-.76v.34ZM535.03,148.59h.76v-3.03h-.76v3.03ZM535.03,145.32h.76v-.34h-.76v.34ZM535.03,144.73h.76v-2.45h-.76v2.45ZM535.03,142.03h.76v-.34h-.76v.34ZM535.03,141.44h.76v-1.12h-.76v1.12ZM528.7,123.55h-.56v2.27h.56v-2.27ZM529.84,123.55h-.56v2.27h.56v-2.27ZM530.63,149.18v-.34h-1.14v.34h1.14ZM529.5,149.42v1.17h1.14v-1.17h-1.14ZM530.63,148.59v-3.03h-1.14v3.03h1.14ZM530.63,145.32v-.34h-1.14v.34h1.14ZM530.63,144.73v-2.45h-1.14v2.45h1.14ZM530.63,142.03v-.34h-1.14v.34h1.14ZM530.63,141.44v-1.12h-1.14v1.12h1.14ZM530.21,133.94h1.05v-1.4h-1.05v1.4ZM532.01,149.18v-.34h-1.14v.34h1.14ZM530.88,149.42v1.17h1.14v-1.17h-1.14ZM532.01,148.59v-3.03h-1.14v3.03h1.14ZM532.01,145.32v-.34h-1.14v.34h1.14ZM532.01,144.73v-2.45h-1.14v2.45h1.14ZM532.01,142.03v-.34h-1.14v.34h1.14ZM532.01,141.44v-1.12h-1.14v1.12h1.14ZM530.98,125.82v-2.27h-.56v2.27h.56ZM531.31,116.55h-1.05v2.84h1.05v-2.84ZM532.12,123.55h-.56v2.27h.56v-2.27ZM533.09,148.59v-3.03h-.83v3.03h.83ZM532.26,148.84v.34h.83v-.34h-.83ZM533.09,145.32v-.34h-.83v.34h.83ZM533.09,144.73v-2.45h-.83v2.45h.83ZM533.09,142.03v-.34h-.83v.34h.83ZM533.09,141.44v-1.12h-.83v1.12h.83ZM533.26,123.55h-.56v2.27h.56v-2.27ZM533.21,162.82h.71v-2.86h-.71v2.86ZM533.09,149.42h-.83v1.17h.83v-1.17ZM531.78,162.82h.71v-2.86h-.71v2.86ZM530.35,162.82h.71v-2.86h-.71v2.86ZM528.91,162.82h.71v-2.86h-.71v2.86ZM528.49,150.59h.76v-1.17h-.76v1.17ZM528.49,149.18h.76v-.34h-.76v.34ZM528.49,148.59h.76v-3.03h-.76v3.03ZM528.49,145.32h.76v-.34h-.76v.34ZM528.49,144.73h.76v-2.45h-.76v2.45ZM528.49,142.03h.76v-.34h-.76v.34ZM528.49,141.44h.76v-1.12h-.76v1.12ZM527.48,162.82h.71v-2.86h-.71v2.86ZM522.63,123.55h-.56v2.27h.56v-2.27ZM522.71,140.32h-.76v1.12h.76v-1.12ZM522.71,141.69h-.76v.34h.76v-.34ZM522.71,142.28h-.76v2.45h.76v-2.45ZM522.71,144.98h-.76v.34h.76v-.34ZM522.71,145.56h-.76v3.03h.76v-3.03ZM522.71,148.84h-.76v.34h.76v-.34ZM523.77,123.55h-.56v2.27h.56v-2.27ZM524.1,140.32h-1.14v1.12h1.14v-1.12ZM524.1,141.69h-1.14v.34h1.14v-.34ZM524.1,142.28h-1.14v2.45h1.14v-2.45ZM524.1,144.98h-1.14v.34h1.14v-.34ZM524.1,145.56h-1.14v3.03h1.14v-3.03ZM524.1,148.84h-1.14v.34h1.14v-.34ZM524.91,123.55h-.56v2.27h.56v-2.27ZM525.33,132.54h-1.05v1.4h1.05v-1.4ZM525.48,140.32h-1.14v1.12h1.14v-1.12ZM525.48,141.69h-1.14v.34h1.14v-.34ZM525.48,142.28h-1.14v2.45h1.14v-2.45ZM525.48,144.98h-1.14v.34h1.14v-.34ZM525.48,145.56h-1.14v3.03h1.14v-3.03ZM525.48,148.84h-1.14v.34h1.14v-.34ZM525.73,150.59h.83v-1.17h-.83v1.17ZM525.73,149.18h.83v-.34h-.83v.34ZM525.73,148.59h.83v-3.03h-.83v3.03ZM525.73,145.32h.83v-.34h-.83v.34ZM525.73,144.73h.83v-2.45h-.83v2.45ZM525.73,142.03h.83v-.34h-.83v.34ZM525.73,141.44h.83v-1.12h-.83v1.12ZM525.48,125.82h.56v-2.27h-.56v2.27ZM525.48,149.42h-1.14v1.17h1.14v-1.17ZM524.15,162.82h.71v-2.86h-.71v2.86ZM524.1,149.42h-1.14v1.17h1.14v-1.17ZM522.71,162.82h.71v-2.86h-.71v2.86ZM522.71,149.42h-.76v1.17h.76v-1.17ZM521.28,162.82h.71v-2.86h-.71v2.86ZM519.85,162.82h.71v-2.86h-.71v2.86ZM515.79,107.91h.79v-2.72h-.79v2.72ZM514.19,107.91h.79v-2.72h-.79v2.72ZM510.88,107.91h.79v-2.72h-.79v2.72ZM509.28,107.91h.79v-2.72h-.79v2.72ZM505.69,107.91h.79v-2.72h-.79v2.72ZM504.1,107.91h.79v-2.72h-.79v2.72ZM464.56,170.7l13.1-.04c8.1,0,16.21.11,24.31.01v-7.13c0-3.3-6.83-8.67-19.5-8.67-5.76,0-17.96,2.42-17.96,9.99,0,2.46.05,2.47.05,5.83h0ZM424.42,170.7l13.1-.04c8.1,0,16.21.11,24.31.01v-7.13c0-3.3-6.83-8.67-19.5-8.67-5.76,0-17.96,2.42-17.96,9.99,0,2.46.05,2.47.05,5.83h0ZM398.57,161.55c0,2.43.04,5.78.04,9.14l2.77-.04c.86,0,1.72,0,2.58,0,7.24.02,10.5.1,17.73.01v-7.13c0-3.3-6.83-8.67-19.5-8.67-1.02,0-2.33.08-3.65.24,0,0,.03.2.03,6.43h0ZM392.69,136.09h1.19v-2.23h-1.19v2.23ZM392.69,133.47h1.19v-2.23h-1.19v2.23ZM391.09,161.89h1.45v-2.23h-1.45v2.23ZM391.09,159.27h1.45v-2.23h-1.45v2.23ZM391.09,153.29h1.45v-2.23h-1.45v2.23ZM391.09,150.67h1.45v-2.23h-1.45v2.23ZM391.09,144.69h1.45v-2.23h-1.45v2.23ZM391.09,142.07h1.45v-2.23h-1.45v2.23ZM387.32,136.09h1.19v-2.23h-1.19v2.23ZM387.32,133.47h1.19v-2.23h-1.19v2.23ZM384.53,161.89h1.45v-2.23h-1.45v2.23ZM384.53,159.27h1.45v-2.23h-1.45v2.23ZM384.53,153.29h1.45v-2.23h-1.45v2.23ZM384.53,150.67h1.45v-2.23h-1.45v2.23ZM384.53,144.69h1.45v-2.23h-1.45v2.23ZM384.53,142.07h1.45v-2.23h-1.45v2.23ZM382.09,136.09h1.19v-2.23h-1.19v2.23ZM382.09,133.47h1.19v-2.23h-1.19v2.23ZM378.15,161.89h1.45v-2.23h-1.45v2.23ZM378.15,159.27h1.45v-2.23h-1.45v2.23ZM378.15,153.29h1.45v-2.23h-1.45v2.23ZM378.15,150.67h1.45v-2.23h-1.45v2.23ZM378.15,144.69h1.45v-2.23h-1.45v2.23ZM378.15,142.07h1.45v-2.23h-1.45v2.23ZM377.02,136.09h1.19v-2.23h-1.19v2.23ZM377.02,133.47h1.19v-2.23h-1.19v2.23ZM366.41,177.36h1.71v-2.27h-1.71v2.27ZM366.41,174.69h1.71v-2.27h-1.71v2.27ZM366.41,168.58h1.71v-2.27h-1.71v2.27ZM366.41,165.92h1.71v-2.27h-1.71v2.27ZM366.41,159.81h1.71v-2.27h-1.71v2.27ZM366.41,157.15h1.71v-2.27h-1.71v2.27ZM366.41,151.04h1.71v-2.27h-1.71v2.27ZM366.41,148.37h1.71v-2.27h-1.71v2.27ZM366.4,131.91h-1.71v2.27h1.71v-2.27ZM366.4,134.58h-1.71v2.27h1.71v-2.27ZM363.31,177.36h1.71v-2.27h-1.71v2.27ZM363.31,174.69h1.71v-2.27h-1.71v2.27ZM363.31,168.58h1.71v-2.27h-1.71v2.27ZM363.31,165.92h1.71v-2.27h-1.71v2.27ZM363.31,159.81h1.71v-2.27h-1.71v2.27ZM363.31,157.15h1.71v-2.27h-1.71v2.27ZM363.31,151.04h1.71v-2.27h-1.71v2.27ZM363.31,148.37h1.71v-2.27h-1.71v2.27ZM357.55,131.91h-1.71v2.27h1.71v-2.27ZM357.56,177.36h1.71v-2.27h-1.71v2.27ZM357.56,174.69h1.71v-2.27h-1.71v2.27ZM357.56,168.58h1.71v-2.27h-1.71v2.27ZM357.56,165.92h1.71v-2.27h-1.71v2.27ZM357.56,159.81h1.71v-2.27h-1.71v2.27ZM357.56,157.15h1.71v-2.27h-1.71v2.27ZM357.56,151.04h1.71v-2.27h-1.71v2.27ZM357.56,148.37h1.71v-2.27h-1.71v2.27ZM357.55,134.58h-1.71v2.27h1.71v-2.27ZM354.46,177.36h1.71v-2.27h-1.71v2.27ZM354.46,174.69h1.71v-2.27h-1.71v2.27ZM354.46,168.58h1.71v-2.27h-1.71v2.27ZM354.46,165.92h1.71v-2.27h-1.71v2.27ZM354.46,159.81h1.71v-2.27h-1.71v2.27ZM354.46,157.15h1.71v-2.27h-1.71v2.27ZM354.46,151.04h1.71v-2.27h-1.71v2.27ZM354.46,148.37h1.71v-2.27h-1.71v2.27ZM346.17,113.88h.56v-2.27h-.56v2.27ZM345.03,113.88h.56v-2.27h-.56v2.27ZM343.89,113.88h.56v-2.27h-.56v2.27ZM343.31,111.61h-.56v2.27h.56v-2.27ZM342.24,162.7h1.05v-2.84h-1.05v2.84ZM342.24,151.76h1.05v-2.84h-1.05v2.84ZM342.24,140.81h1.05v-2.84h-1.05v2.84ZM342.24,129.86h1.05v-2.84h-1.05v2.84ZM341.61,113.88h.56v-2.27h-.56v2.27ZM340.47,113.88h.56v-2.27h-.56v2.27ZM339.33,113.88h.56v-2.27h-.56v2.27ZM339.17,107.45h1.05v-2.84h-1.05v2.84ZM337.62,111.61h-.56v2.27h.56v-2.27ZM338.19,113.88h.56v-2.27h-.56v2.27ZM336.88,162.7h1.05v-2.84h-1.05v2.84ZM336.88,151.76h1.05v-2.84h-1.05v2.84ZM336.88,140.81h1.05v-2.84h-1.05v2.84ZM336.88,129.86h1.05v-2.84h-1.05v2.84ZM335.91,113.88h.56v-2.27h-.56v2.27ZM334.77,113.88h.56v-2.27h-.56v2.27ZM333.63,113.88h.56v-2.27h-.56v2.27ZM332.49,113.88h.56v-2.27h-.56v2.27ZM318.86,120.59h-1.71v2.27h1.71v-2.27ZM320.57,135.12h-1.71v4.59h1.71v-4.59ZM320.57,146.66h-1.71v1.61h1.71v-1.61ZM320.57,149.77h-1.71v1.61h1.71v-1.61ZM315.77,172.11h4.81v-9.05h-4.81v9.05ZM315.77,151.38h1.71v-1.61h-1.71v1.61ZM315.77,148.27h1.71v-1.61h-1.71v1.61ZM315.77,139.72h1.71v-4.59h-1.71v4.59ZM306.1,64.83h-.56v2.27h.56v-2.27ZM306.49,73.82h-1.05v1.4h1.05v-1.4ZM307.24,64.83h-.56v2.27h.56v-2.27ZM307.73,101.24h-.71v2.86h.71v-2.86ZM308.38,64.83h-.56v2.27h.56v-2.27ZM308.67,81.59h-.83v1.12h.83v-1.12ZM308.67,82.96h-.83v.34h.83v-.34ZM308.67,83.55h-.83v2.45h.83v-2.45ZM308.67,86.25h-.83v.34h.83v-.34ZM308.67,86.84h-.83v3.03h.83v-3.03ZM308.67,90.12h-.83v.34h.83v-.34ZM308.67,90.7h-.83v1.17h.83v-1.17ZM309.16,101.24h-.71v2.86h.71v-2.86ZM308.3,120.59v2.27h1.71v-2.27h-1.71ZM310.59,101.24h-.71v2.86h.71v-2.86ZM311.72,135.12h-1.71v4.59h1.71v-4.59ZM311.72,146.66h-1.71v1.61h1.71v-1.61ZM311.72,149.77h-1.71v1.61h1.71v-1.61ZM306.91,172.11h4.81v-9.05h-4.81v9.05ZM306.91,151.38h1.71v-1.61h-1.71v1.61ZM306.91,148.27h1.71v-1.61h-1.71v1.61ZM306.91,139.72h1.71v-4.59h-1.71v4.59ZM306.45,91.87h1.14v-1.17h-1.14v1.17ZM306.45,90.46h1.14v-.34h-1.14v.34ZM306.45,89.87h1.14v-3.03h-1.14v3.03ZM306.45,86.59h1.14v-.34h-1.14v.34ZM306.45,86.01h1.14v-2.45h-1.14v2.45ZM306.45,83.3h1.14v-.34h-1.14v.34ZM306.45,82.72h1.14v-1.12h-1.14v1.12ZM305.59,104.1h.71v-2.86h-.71v2.86ZM305.07,91.87h1.14v-1.17h-1.14v1.17ZM305.07,90.46h1.14v-.34h-1.14v.34ZM305.07,89.87h1.14v-3.03h-1.14v3.03ZM305.07,86.59h1.14v-.34h-1.14v.34ZM305.07,86.01h1.14v-2.45h-1.14v2.45ZM305.07,83.3h1.14v-.34h-1.14v.34ZM305.07,82.72h1.14v-1.12h-1.14v1.12ZM304.96,64.83h-.56v2.27h.56v-2.27ZM304.07,91.87h.76v-1.17h-.76v1.17ZM304.07,90.46h.76v-.34h-.76v.34ZM304.07,89.87h.76v-3.03h-.76v3.03ZM304.07,86.59h.76v-.34h-.76v.34ZM304.07,86.01h.76v-2.45h-.76v2.45ZM304.07,83.3h.76v-.34h-.76v.34ZM304.07,82.72h.76v-1.12h-.76v1.12ZM297.74,64.83h-.56v2.27h.56v-2.27ZM301.76,36.71h-3.86v6.34h3.86v-6.34ZM302.35,148.27v-1.61h-1.71v1.61h1.71ZM300.65,149.77v1.61h1.71v-1.61h-1.71ZM302.35,139.72v-4.59h-1.71v4.59h1.71ZM299.67,89.87v-3.03h-1.14v3.03h1.14ZM298.53,90.12v.34h1.14v-.34h-1.14ZM299.67,86.59v-.34h-1.14v.34h1.14ZM299.67,86.01v-2.45h-1.14v2.45h1.14ZM299.67,83.3v-.34h-1.14v.34h1.14ZM299.67,82.72v-1.12h-1.14v1.12h1.14ZM299.25,75.21h1.05v-1.4h-1.05v1.4ZM300.02,67.1v-2.27h-.56v2.27h.56ZM299.3,60.67h1.05v-2.84h-1.05v2.84ZM299.92,81.59v1.12h1.14v-1.12h-1.14ZM299.92,83.55v2.45h1.14v-2.45h-1.14ZM301.05,83.3v-.34h-1.14v.34h1.14ZM299.92,86.25v.34h1.14v-.34h-1.14ZM299.92,86.84v3.03h1.14v-3.03h-1.14ZM299.92,90.12v.34h1.14v-.34h-1.14ZM299.39,101.24v2.86h.71v-2.86h-.71ZM300.6,67.1h.56v-2.27h-.56v2.27ZM301.3,82.72h.83v-1.12h-.83v1.12ZM300.82,101.24v2.86h.71v-2.86h-.71ZM301.3,82.96v.34h.83v-.34h-.83ZM301.3,83.55v2.45h.83v-2.45h-.83ZM301.3,86.25v.34h.83v-.34h-.83ZM301.3,86.84v3.03h.83v-3.03h-.83ZM301.3,90.12v.34h.83v-.34h-.83ZM301.3,90.7v1.17h.83v-1.17h-.83ZM301.05,91.87v-1.17h-1.14v1.17h1.14ZM300.64,120.59h-1.71v2.27h1.71v-2.27ZM299.67,91.87v-1.17h-1.14v1.17h1.14ZM298.66,101.24h-.71v2.86h.71v-2.86ZM298.32,67.1h.56v-2.27h-.56v2.27ZM302.3,64.83h-.56v2.27h.56v-2.27ZM302.96,101.24h-.71v2.86h.71v-2.86ZM297.55,172.11h4.81v-9.05h-4.81v9.05ZM297.55,151.38h1.71v-1.61h-1.71v1.61ZM297.55,148.27h1.71v-1.61h-1.71v1.61ZM297.55,139.72h1.71v-4.59h-1.71v4.59ZM297.53,91.87h.76v-1.17h-.76v1.17ZM297.53,90.46h.76v-.34h-.76v.34ZM297.53,89.87h.76v-3.03h-.76v3.03ZM297.53,86.59h.76v-.34h-.76v.34ZM297.53,86.01h.76v-2.45h-.76v2.45ZM297.53,83.3h.76v-.34h-.76v.34ZM297.53,82.72h.76v-1.12h-.76v1.12ZM296.52,104.1h.71v-2.86h-.71v2.86ZM289.6,101.24h-.71v2.86h.71v-2.86ZM290.08,120.59v2.27h1.71v-2.27h-1.71ZM290.32,104.1h.71v-2.86h-.71v2.86ZM291.67,64.83h-.56v2.27h.56v-2.27ZM291.75,81.59h-.76v1.12h.76v-1.12ZM291.75,82.96h-.76v.34h.76v-.34ZM291.75,83.55h-.76v2.45h.76v-2.45ZM291.75,86.25h-.76v.34h.76v-.34ZM291.75,86.84h-.76v3.03h.76v-3.03ZM291.75,90.12h-.76v.34h.76v-.34ZM291.75,90.7h-.76v1.17h.76v-1.17ZM291.75,104.1h.71v-2.86h-.71v2.86ZM293.5,148.27v-1.61h-1.71v1.61h1.71ZM291.79,149.77v1.61h1.71v-1.61h-1.71ZM293.5,139.72v-4.59h-1.71v4.59h1.71ZM292.8,64.83h-.56v2.27h.56v-2.27ZM293.13,81.59h-1.14v1.12h1.14v-1.12ZM293.13,82.96h-1.14v.34h1.14v-.34ZM293.13,83.55h-1.14v2.45h1.14v-2.45ZM293.13,86.25h-1.14v.34h1.14v-.34ZM293.13,86.84h-1.14v3.03h1.14v-3.03ZM293.13,90.12h-1.14v.34h1.14v-.34ZM293.13,90.7h-1.14v1.17h1.14v-1.17ZM293.95,64.83h-.56v2.27h.56v-2.27ZM294.36,73.82h-1.05v1.4h1.05v-1.4ZM294.52,81.59h-1.14v1.12h1.14v-1.12ZM294.52,82.96h-1.14v.34h1.14v-.34ZM294.52,83.55h-1.14v2.45h1.14v-2.45ZM294.52,86.25h-1.14v.34h1.14v-.34ZM294.52,86.84h-1.14v3.03h1.14v-3.03ZM294.52,90.12h-1.14v.34h1.14v-.34ZM294.77,91.87h.83v-1.17h-.83v1.17ZM294.77,90.46h.83v-.34h-.83v.34ZM294.77,89.87h.83v-3.03h-.83v3.03ZM294.77,86.59h.83v-.34h-.83v.34ZM294.77,86.01h.83v-2.45h-.83v2.45ZM294.77,83.3h.83v-.34h-.83v.34ZM294.77,82.72h.83v-1.12h-.83v1.12ZM294.52,67.1h.56v-2.27h-.56v2.27ZM294.52,90.7h-1.14v1.17h1.14v-1.17ZM293.89,101.24h-.71v2.86h.71v-2.86ZM288.69,172.11h4.81v-9.05h-4.81v9.05ZM288.69,151.38h1.71v-1.61h-1.71v1.61ZM288.69,148.27h1.71v-1.61h-1.71v1.61ZM288.69,139.72h1.71v-4.59h-1.71v4.59ZM282.28,120.59h-1.71v2.27h1.71v-2.27ZM284,135.12h-1.71v4.59h1.71v-4.59ZM284,146.66h-1.71v1.61h1.71v-1.61ZM284,149.77h-1.71v1.61h1.71v-1.61ZM279.19,172.11h4.81v-9.05h-4.81v9.05ZM279.19,151.38h1.71v-1.61h-1.71v1.61ZM279.19,148.27h1.71v-1.61h-1.71v1.61ZM279.19,139.72h1.71v-4.59h-1.71v4.59ZM267.48,113.88h.56v-2.27h-.56v2.27ZM266.34,113.88h.56v-2.27h-.56v2.27ZM265.2,113.88h.56v-2.27h-.56v2.27ZM264.62,111.61h-.56v2.27h.56v-2.27ZM263.55,162.7h1.05v-2.84h-1.05v2.84ZM263.55,151.76h1.05v-2.84h-1.05v2.84ZM263.55,140.81h1.05v-2.84h-1.05v2.84ZM263.55,129.86h1.05v-2.84h-1.05v2.84ZM262.92,113.88h.56v-2.27h-.56v2.27ZM261.78,113.88h.56v-2.27h-.56v2.27ZM260.64,113.88h.56v-2.27h-.56v2.27ZM260.48,107.45h1.05v-2.84h-1.05v2.84ZM258.93,111.61h-.56v2.27h.56v-2.27ZM259.5,113.88h.56v-2.27h-.56v2.27ZM258.19,162.7h1.05v-2.84h-1.05v2.84ZM258.19,151.76h1.05v-2.84h-1.05v2.84ZM258.19,140.81h1.05v-2.84h-1.05v2.84ZM258.19,129.86h1.05v-2.84h-1.05v2.84ZM257.22,113.88h.56v-2.27h-.56v2.27ZM256.08,113.88h.56v-2.27h-.56v2.27ZM254.94,113.88h.56v-2.27h-.56v2.27ZM253.8,113.88h.56v-2.27h-.56v2.27ZM244.94,131.91h-1.71v2.27h1.71v-2.27ZM244.95,177.36h1.71v-2.27h-1.71v2.27ZM244.95,174.69h1.71v-2.27h-1.71v2.27ZM244.95,168.58h1.71v-2.27h-1.71v2.27ZM244.95,165.92h1.71v-2.27h-1.71v2.27ZM244.95,159.81h1.71v-2.27h-1.71v2.27ZM244.95,157.15h1.71v-2.27h-1.71v2.27ZM244.95,151.04h1.71v-2.27h-1.71v2.27ZM244.95,148.37h1.71v-2.27h-1.71v2.27ZM244.94,134.58h-1.71v2.27h1.71v-2.27ZM241.85,177.36h1.71v-2.27h-1.71v2.27ZM241.85,174.69h1.71v-2.27h-1.71v2.27ZM241.85,168.58h1.71v-2.27h-1.71v2.27ZM241.85,165.92h1.71v-2.27h-1.71v2.27ZM241.85,159.81h1.71v-2.27h-1.71v2.27ZM241.85,157.15h1.71v-2.27h-1.71v2.27ZM241.85,151.04h1.71v-2.27h-1.71v2.27ZM241.85,148.37h1.71v-2.27h-1.71v2.27ZM236.08,131.91h-1.71v2.27h1.71v-2.27ZM236.1,177.36h1.71v-2.27h-1.71v2.27ZM236.1,174.69h1.71v-2.27h-1.71v2.27ZM236.1,168.58h1.71v-2.27h-1.71v2.27ZM236.1,165.92h1.71v-2.27h-1.71v2.27ZM236.1,159.81h1.71v-2.27h-1.71v2.27ZM236.1,157.15h1.71v-2.27h-1.71v2.27ZM236.1,151.04h1.71v-2.27h-1.71v2.27ZM236.1,148.37h1.71v-2.27h-1.71v2.27ZM236.08,134.58h-1.71v2.27h1.71v-2.27ZM232.99,177.36h1.71v-2.27h-1.71v2.27ZM232.99,174.69h1.71v-2.27h-1.71v2.27ZM232.99,168.58h1.71v-2.27h-1.71v2.27ZM232.99,165.92h1.71v-2.27h-1.71v2.27ZM232.99,159.81h1.71v-2.27h-1.71v2.27ZM232.99,157.15h1.71v-2.27h-1.71v2.27ZM232.99,151.04h1.71v-2.27h-1.71v2.27ZM232.99,148.37h1.71v-2.27h-1.71v2.27ZM222.9,136.09h1.19v-2.23h-1.19v2.23ZM222.9,133.47h1.19v-2.23h-1.19v2.23ZM221.29,161.89h1.45v-2.23h-1.45v2.23ZM221.29,159.27h1.45v-2.23h-1.45v2.23ZM221.29,153.29h1.45v-2.23h-1.45v2.23ZM221.29,150.67h1.45v-2.23h-1.45v2.23ZM221.29,144.69h1.45v-2.23h-1.45v2.23ZM221.29,142.07h1.45v-2.23h-1.45v2.23ZM217.52,136.09h1.19v-2.23h-1.19v2.23ZM217.52,133.47h1.19v-2.23h-1.19v2.23ZM214.73,161.89h1.45v-2.23h-1.45v2.23ZM214.73,159.27h1.45v-2.23h-1.45v2.23ZM214.73,153.29h1.45v-2.23h-1.45v2.23ZM214.73,150.67h1.45v-2.23h-1.45v2.23ZM214.73,144.69h1.45v-2.23h-1.45v2.23ZM214.73,142.07h1.45v-2.23h-1.45v2.23ZM212.29,136.09h1.19v-2.23h-1.19v2.23ZM212.29,133.47h1.19v-2.23h-1.19v2.23ZM208.35,161.89h1.45v-2.23h-1.45v2.23ZM208.35,159.27h1.45v-2.23h-1.45v2.23ZM208.35,153.29h1.45v-2.23h-1.45v2.23ZM208.35,150.67h1.45v-2.23h-1.45v2.23ZM208.35,144.69h1.45v-2.23h-1.45v2.23ZM208.35,142.07h1.45v-2.23h-1.45v2.23ZM207.22,136.09h1.19v-2.23h-1.19v2.23ZM207.22,133.47h1.19v-2.23h-1.19v2.23ZM190.07,168.52h1.79v-2.76h-1.79v2.76ZM190.07,165.28h1.79v-2.76h-1.79v2.76ZM190.07,157.88h1.79v-2.76h-1.79v2.76ZM190.07,154.64h1.79v-2.76h-1.79v2.76ZM190.07,147.24h1.79v-2.76h-1.79v2.76ZM190.07,144h1.79v-2.76h-1.79v2.76ZM190.07,136.65h1.79v-2.76h-1.79v2.76ZM190.07,133.42h1.79v-2.76h-1.79v2.76ZM190.07,126.01h1.79v-2.76h-1.79v2.76ZM190.07,122.77h1.79v-2.76h-1.79v2.76ZM190.07,115.37h1.79v-2.76h-1.79v2.76ZM190.07,112.13h1.79v-2.76h-1.79v2.76ZM190.07,104.72h1.79v-2.76h-1.79v2.76ZM190.07,101.49h1.79v-2.76h-1.79v2.76ZM190.07,94.08h1.79v-2.76h-1.79v2.76ZM190.07,90.85h1.79v-2.76h-1.79v2.76ZM190.07,83.44h1.79v-2.76h-1.79v2.76ZM190.07,80.21h1.79v-2.76h-1.79v2.76ZM186.81,168.52h1.79v-2.76h-1.79v2.76ZM186.81,165.28h1.79v-2.76h-1.79v2.76ZM186.81,157.88h1.79v-2.76h-1.79v2.76ZM186.81,154.64h1.79v-2.76h-1.79v2.76ZM186.81,147.24h1.79v-2.76h-1.79v2.76ZM186.81,144h1.79v-2.76h-1.79v2.76ZM186.81,136.65h1.79v-2.76h-1.79v2.76ZM186.81,133.42h1.79v-2.76h-1.79v2.76ZM186.81,126.01h1.79v-2.76h-1.79v2.76ZM186.81,122.77h1.79v-2.76h-1.79v2.76ZM186.81,115.37h1.79v-2.76h-1.79v2.76ZM186.81,112.13h1.79v-2.76h-1.79v2.76ZM186.81,104.72h1.79v-2.76h-1.79v2.76ZM186.81,101.49h1.79v-2.76h-1.79v2.76ZM186.81,94.08h1.79v-2.76h-1.79v2.76ZM186.81,90.85h1.79v-2.76h-1.79v2.76ZM186.81,83.44h1.79v-2.76h-1.79v2.76ZM186.81,80.21h1.79v-2.76h-1.79v2.76ZM180.77,168.52h1.79v-2.76h-1.79v2.76ZM180.77,165.28h1.79v-2.76h-1.79v2.76ZM180.77,157.88h1.79v-2.76h-1.79v2.76ZM180.77,154.64h1.79v-2.76h-1.79v2.76ZM180.77,147.24h1.79v-2.76h-1.79v2.76ZM180.77,144h1.79v-2.76h-1.79v2.76ZM180.77,136.65h1.79v-2.76h-1.79v2.76ZM180.77,133.42h1.79v-2.76h-1.79v2.76ZM180.77,126.01h1.79v-2.76h-1.79v2.76ZM180.77,122.77h1.79v-2.76h-1.79v2.76ZM180.77,115.37h1.79v-2.76h-1.79v2.76ZM180.77,112.13h1.79v-2.76h-1.79v2.76ZM180.77,104.72h1.79v-2.76h-1.79v2.76ZM180.77,101.49h1.79v-2.76h-1.79v2.76ZM180.77,94.08h1.79v-2.76h-1.79v2.76ZM180.77,90.85h1.79v-2.76h-1.79v2.76ZM180.77,83.44h1.79v-2.76h-1.79v2.76ZM180.77,80.21h1.79v-2.76h-1.79v2.76ZM177.51,168.52h1.79v-2.76h-1.79v2.76ZM177.51,165.28h1.79v-2.76h-1.79v2.76ZM177.51,157.88h1.79v-2.76h-1.79v2.76ZM177.51,154.64h1.79v-2.76h-1.79v2.76ZM177.51,147.24h1.79v-2.76h-1.79v2.76ZM177.51,144h1.79v-2.76h-1.79v2.76ZM177.51,136.65h1.79v-2.76h-1.79v2.76ZM177.51,133.42h1.79v-2.76h-1.79v2.76ZM177.51,126.01h1.79v-2.76h-1.79v2.76ZM177.51,122.77h1.79v-2.76h-1.79v2.76ZM177.51,115.37h1.79v-2.76h-1.79v2.76ZM177.51,112.13h1.79v-2.76h-1.79v2.76ZM177.51,104.72h1.79v-2.76h-1.79v2.76ZM177.51,101.49h1.79v-2.76h-1.79v2.76ZM177.51,94.08h1.79v-2.76h-1.79v2.76ZM177.51,90.85h1.79v-2.76h-1.79v2.76ZM177.51,83.44h1.79v-2.76h-1.79v2.76ZM177.51,80.21h1.79v-2.76h-1.79v2.76ZM171.46,168.52h1.79v-2.76h-1.79v2.76ZM171.46,165.28h1.79v-2.76h-1.79v2.76ZM171.46,157.88h1.79v-2.76h-1.79v2.76ZM171.46,154.64h1.79v-2.76h-1.79v2.76ZM171.46,147.24h1.79v-2.76h-1.79v2.76ZM171.46,144h1.79v-2.76h-1.79v2.76ZM171.46,136.65h1.79v-2.76h-1.79v2.76ZM171.46,133.42h1.79v-2.76h-1.79v2.76ZM171.46,126.01h1.79v-2.76h-1.79v2.76ZM171.46,122.77h1.79v-2.76h-1.79v2.76ZM171.46,115.37h1.79v-2.76h-1.79v2.76ZM171.46,112.13h1.79v-2.76h-1.79v2.76ZM171.46,104.72h1.79v-2.76h-1.79v2.76ZM171.46,101.49h1.79v-2.76h-1.79v2.76ZM171.46,94.08h1.79v-2.76h-1.79v2.76ZM171.46,90.85h1.79v-2.76h-1.79v2.76ZM171.46,83.44h1.79v-2.76h-1.79v2.76ZM171.46,80.21h1.79v-2.76h-1.79v2.76ZM168.21,168.52h1.79v-2.76h-1.79v2.76ZM168.21,165.28h1.79v-2.76h-1.79v2.76ZM168.21,157.88h1.79v-2.76h-1.79v2.76ZM168.21,154.64h1.79v-2.76h-1.79v2.76ZM168.21,147.24h1.79v-2.76h-1.79v2.76ZM168.21,144h1.79v-2.76h-1.79v2.76ZM168.21,136.65h1.79v-2.76h-1.79v2.76ZM168.21,133.42h1.79v-2.76h-1.79v2.76ZM168.21,126.01h1.79v-2.76h-1.79v2.76ZM168.21,122.77h1.79v-2.76h-1.79v2.76ZM168.21,115.37h1.79v-2.76h-1.79v2.76ZM168.21,112.13h1.79v-2.76h-1.79v2.76ZM168.21,104.72h1.79v-2.76h-1.79v2.76ZM168.21,101.49h1.79v-2.76h-1.79v2.76ZM168.21,94.08h1.79v-2.76h-1.79v2.76ZM168.21,90.85h1.79v-2.76h-1.79v2.76ZM168.21,83.44h1.79v-2.76h-1.79v2.76ZM168.21,80.21h1.79v-2.76h-1.79v2.76ZM150.86,180.26h1.71v-2.84h-1.71v2.84ZM150.86,176.94h1.71v-2.84h-1.71v2.84ZM150.86,169.33h1.71v-2.84h-1.71v2.84ZM150.86,166.01h1.71v-2.84h-1.71v2.84ZM150.86,158.4h1.71v-2.84h-1.71v2.84ZM150.86,155.08h1.71v-2.84h-1.71v2.84ZM150.86,147.47h1.71v-2.84h-1.71v2.84ZM150.86,144.15h1.71v-2.84h-1.71v2.84ZM150.04,106.08h2.07v-2.76h-2.07v2.76ZM150.04,102.85h2.07v-2.76h-2.07v2.76ZM150.04,95.44h2.07v-2.76h-2.07v2.76ZM150.04,92.21h2.07v-2.76h-2.07v2.76ZM150.04,84.8h2.07v-2.76h-2.07v2.76ZM150.04,81.57h2.07v-2.76h-2.07v2.76ZM150.04,74.16h2.07v-2.76h-2.07v2.76ZM150.04,70.92h2.07v-2.76h-2.07v2.76ZM150.04,63.52h2.07v-2.76h-2.07v2.76ZM150.04,60.28h2.07v-2.76h-2.07v2.76ZM150.04,52.88h2.07v-2.76h-2.07v2.76ZM150.04,49.64h2.07v-2.76h-2.07v2.76ZM150.04,42.91h2.07v-2.76h-2.07v2.76ZM150.04,39.67h2.07v-2.76h-2.07v2.76ZM150.04,32.02h2.07v-2.76h-2.07v2.76ZM150.04,28.78h2.07v-2.76h-2.07v2.76ZM116.26,133.06l2.15,1.21c.08-.16.2-.29.34-.39l-1.44-1.96c-.43.29-.79.67-1.04,1.14h0ZM118.52,134.88h2.28c-.04-1.32-2.24-1.31-2.28,0ZM121.76,131.79c-.57-.32-1.22-.49-1.87-.53v2.35c.15.02.3.07.44.13l1.44-1.95h0ZM117.01,40.12v2.76h2.07v-2.76h-2.07ZM119.08,39.64v-2.76h-2.07v2.76h2.07ZM117.01,46.88v2.76h2.07v-2.76h-2.07ZM117.01,50.12v2.76h2.07v-2.76h-2.07ZM117.01,57.52v2.76h2.07v-2.76h-2.07ZM117.01,60.76v2.76h2.07v-2.76h-2.07ZM117.01,68.17v2.76h2.07v-2.76h-2.07ZM117.01,71.4v2.76h2.07v-2.76h-2.07ZM117.01,78.81v2.76h2.07v-2.76h-2.07ZM117.01,82.04v2.76h2.07v-2.76h-2.07ZM117.01,89.45v2.76h2.07v-2.76h-2.07ZM117.01,92.68v2.76h2.07v-2.76h-2.07ZM117.01,100.09v2.76h2.07v-2.76h-2.07ZM117.01,103.33v2.76h2.07v-2.76h-2.07ZM117.58,131.74l1.45,1.97c.17-.07.34-.11.53-.11v-2.35c-.7,0-1.39.17-1.98.49ZM119.55,141.95h-1.53v2.23h1.53v-2.23ZM119.55,141.6v-1.96h-1.53v1.96h1.53ZM119.55,139.29v-1.93h-1.53v1.93h1.53ZM119.55,137.01v-1.82h-1.53v1.82h1.53ZM116.98,35.85h5.86c0-3.67-6-3.74-5.86,0ZM122.84,10.84h-2.07v2.76h2.07v-2.76ZM122.84,14.08h-2.07v2.76h2.07v-2.76ZM122.84,36.88h-2.07v2.76h2.07v-2.76ZM122.84,40.12h-2.07v2.76h2.07v-2.76ZM122.84,46.88h-2.07v2.76h2.07v-2.76ZM122.84,50.12h-2.07v2.76h2.07v-2.76ZM122.84,57.52h-2.07v2.76h2.07v-2.76ZM122.84,60.76h-2.07v2.76h2.07v-2.76ZM122.84,68.17h-2.07v2.76h2.07v-2.76ZM122.84,71.4h-2.07v2.76h2.07v-2.76ZM122.84,78.81h-2.07v2.76h2.07v-2.76ZM122.84,82.04h-2.07v2.76h2.07v-2.76ZM122.84,89.45h-2.07v2.76h2.07v-2.76ZM122.84,92.68h-2.07v2.76h2.07v-2.76ZM122.84,100.09h-2.07v2.76h2.07v-2.76ZM122.84,103.33h-2.07v2.76h2.07v-2.76ZM122.03,131.96l-1.44,1.95c.13.1.23.23.32.38l2.16-1.21c-.26-.46-.62-.83-1.04-1.12h0ZM123.22,133.37l-2.19,1.23c.02.09.03.18.03.28h2.47c0-.57-.11-1.07-.31-1.51h0ZM123.54,135.19h-1.8v1.82h1.8v-1.82ZM123.54,137.36h-1.8v1.93h1.8v-1.93ZM123.54,139.64h-1.8v1.96h1.8v-1.96ZM123.54,141.95h-1.8v2.23h1.8v-2.23ZM129.61,134.88h2.28c-.04-1.32-2.24-1.31-2.28,0ZM132.85,131.79c-.57-.32-1.22-.49-1.87-.53v2.35c.15.02.3.07.44.13l1.44-1.95h0ZM127.75,40.12v2.76h2.07v-2.76h-2.07ZM129.82,39.64v-2.76h-2.07v2.76h2.07ZM127.75,46.88v2.76h2.07v-2.76h-2.07ZM127.75,50.12v2.76h2.07v-2.76h-2.07ZM127.75,57.52v2.76h2.07v-2.76h-2.07ZM127.75,60.76v2.76h2.07v-2.76h-2.07ZM127.75,68.17v2.76h2.07v-2.76h-2.07ZM127.75,71.4v2.76h2.07v-2.76h-2.07ZM127.75,78.81v2.76h2.07v-2.76h-2.07ZM127.75,82.04v2.76h2.07v-2.76h-2.07ZM127.75,89.45v2.76h2.07v-2.76h-2.07ZM127.75,92.68v2.76h2.07v-2.76h-2.07ZM127.75,100.09v2.76h2.07v-2.76h-2.07ZM127.75,103.33v2.76h2.07v-2.76h-2.07ZM128.67,131.74l1.45,1.97c.17-.07.34-.11.53-.11v-2.35c-.7,0-1.39.17-1.98.49ZM130.64,141.95h-1.53v2.23h1.53v-2.23ZM130.64,141.6v-1.96h-1.53v1.96h1.53ZM130.64,139.29v-1.93h-1.53v1.93h1.53ZM130.64,137.01v-1.82h-1.53v1.82h1.53ZM129.84,133.87l-1.44-1.96c-.43.29-.79.67-1.04,1.14l2.15,1.21c.08-.16.2-.29.34-.39h0ZM129.82,10.84h-2.07v2.76h2.07v-2.76ZM129.82,14.08h-2.07v2.76h2.07v-2.76ZM127.72,35.85h5.86c0-3.67-6-3.74-5.86,0ZM133.58,10.84h-2.07v2.76h2.07v-2.76ZM133.58,14.08h-2.07v2.76h2.07v-2.76ZM133.58,36.88h-2.07v2.76h2.07v-2.76ZM133.58,40.12h-2.07v2.76h2.07v-2.76ZM133.58,46.88h-2.07v2.76h2.07v-2.76ZM133.58,50.12h-2.07v2.76h2.07v-2.76ZM133.58,57.52h-2.07v2.76h2.07v-2.76ZM133.58,60.76h-2.07v2.76h2.07v-2.76ZM133.58,68.17h-2.07v2.76h2.07v-2.76ZM133.58,71.4h-2.07v2.76h2.07v-2.76ZM133.58,78.81h-2.07v2.76h2.07v-2.76ZM133.58,82.04h-2.07v2.76h2.07v-2.76ZM133.58,89.45h-2.07v2.76h2.07v-2.76ZM133.58,92.68h-2.07v2.76h2.07v-2.76ZM133.58,100.09h-2.07v2.76h2.07v-2.76ZM133.58,103.33h-2.07v2.76h2.07v-2.76ZM133.12,131.96l-1.44,1.95c.13.1.23.23.32.38l2.16-1.21c-.26-.46-.62-.83-1.04-1.12h0ZM134.31,133.37l-2.19,1.23c.02.09.03.18.03.28h2.47c0-.57-.11-1.07-.31-1.51h0ZM134.63,135.19h-1.8v1.82h1.8v-1.82ZM134.63,137.36h-1.8v1.93h1.8v-1.93ZM134.63,139.64h-1.8v1.96h1.8v-1.96ZM134.63,141.95h-1.8v2.23h1.8v-2.23ZM140.44,134.88h2.28c-.04-1.32-2.24-1.31-2.28,0ZM143.67,131.79c-.57-.32-1.22-.49-1.87-.53v2.35c.15.02.3.07.44.13l1.44-1.95h0ZM138.49,40.12v2.76h2.07v-2.76h-2.07ZM140.56,39.64v-2.76h-2.07v2.76h2.07ZM138.49,46.88v2.76h2.07v-2.76h-2.07ZM138.49,50.12v2.76h2.07v-2.76h-2.07ZM138.49,57.52v2.76h2.07v-2.76h-2.07ZM138.49,60.76v2.76h2.07v-2.76h-2.07ZM138.49,68.17v2.76h2.07v-2.76h-2.07ZM138.49,71.4v2.76h2.07v-2.76h-2.07ZM138.49,78.81v2.76h2.07v-2.76h-2.07ZM138.49,82.04v2.76h2.07v-2.76h-2.07ZM138.49,89.45v2.76h2.07v-2.76h-2.07ZM138.49,92.68v2.76h2.07v-2.76h-2.07ZM138.49,100.09v2.76h2.07v-2.76h-2.07ZM138.49,103.33v2.76h2.07v-2.76h-2.07ZM139.5,131.74l1.45,1.97c.17-.07.34-.11.53-.11v-2.35c-.7,0-1.39.17-1.98.49h0ZM141.46,141.95h-1.53v2.23h1.53v-2.23ZM141.46,141.6v-1.96h-1.53v1.96h1.53ZM141.46,139.29v-1.93h-1.53v1.93h1.53ZM141.46,137.01v-1.82h-1.53v1.82h1.53ZM140.66,133.87l-1.44-1.96c-.43.29-.79.67-1.04,1.14l2.15,1.21c.08-.16.2-.29.34-.39h0ZM140.56,10.84h-2.07v2.76h2.07v-2.76ZM140.56,14.08h-2.07v2.76h2.07v-2.76ZM138.46,35.85h5.86c0-3.67-6-3.74-5.86,0ZM144.32,36.88h-2.07v2.76h2.07v-2.76ZM144.32,40.12h-2.07v2.76h2.07v-2.76ZM144.32,46.88h-2.07v2.76h2.07v-2.76ZM144.32,50.12h-2.07v2.76h2.07v-2.76ZM144.32,57.52h-2.07v2.76h2.07v-2.76ZM144.32,60.76h-2.07v2.76h2.07v-2.76ZM144.32,68.17h-2.07v2.76h2.07v-2.76ZM144.32,71.4h-2.07v2.76h2.07v-2.76ZM144.32,78.81h-2.07v2.76h2.07v-2.76ZM144.32,82.04h-2.07v2.76h2.07v-2.76ZM144.32,89.45h-2.07v2.76h2.07v-2.76ZM144.32,92.68h-2.07v2.76h2.07v-2.76ZM144.32,100.09h-2.07v2.76h2.07v-2.76ZM144.32,103.33h-2.07v2.76h2.07v-2.76ZM143.95,131.96l-1.44,1.95c.13.1.23.23.32.38l2.16-1.21c-.26-.46-.62-.83-1.04-1.12h0ZM145.14,133.37l-2.19,1.23c.02.09.03.18.03.28h2.47c0-.57-.11-1.07-.31-1.51h0ZM145.46,135.19h-1.8v1.82h1.8v-1.82ZM145.46,137.36h-1.8v1.93h1.8v-1.93ZM145.46,139.64h-1.8v1.96h1.8v-1.96ZM145.46,141.95h-1.8v2.23h1.8v-2.23ZM145.46,144.52h-1.8v1.95h1.8v-1.95ZM142.25,180.22h2.07v-6.74h-2.07v6.74ZM142.25,172.32h2.07v-6.74h-2.07v6.74ZM142.25,158.37h2.07v-2.76h-2.07v2.76ZM142.25,155.13h2.07v-2.76h-2.07v2.76ZM141.81,146.48h1.5v-1.95h-1.5v1.95ZM141.81,144.17h1.5v-2.23h-1.5v2.23ZM141.81,141.6h1.5v-1.96h-1.5v1.96ZM141.81,139.29h1.5v-1.93h-1.5v1.93ZM141.81,137.01h1.5v-1.82h-1.5v1.82ZM141.46,144.52h-1.53v1.95h1.53v-1.95ZM138.49,180.22h2.07v-6.74h-2.07v6.74ZM138.49,172.32h2.07v-6.74h-2.07v6.74ZM138.49,158.37h2.07v-2.76h-2.07v2.76ZM138.49,155.13h2.07v-2.76h-2.07v2.76ZM137.8,146.48h1.78v-1.95h-1.78v1.95ZM137.8,144.17h1.78v-2.23h-1.78v2.23ZM137.8,141.6h1.78v-1.96h-1.78v1.96ZM137.8,139.29h1.78v-1.93h-1.78v1.93ZM137.8,137.01h1.78v-1.82h-1.78v1.82ZM140.19,134.88c0-.11,0-.21.03-.31l-2.18-1.22c-.18.44-.27.95-.25,1.53h2.4ZM134.63,144.52h-1.8v1.95h1.8v-1.95ZM131.51,180.22h2.07v-6.74h-2.07v6.74ZM131.51,172.32h2.07v-6.74h-2.07v6.74ZM131.51,158.37h2.07v-2.76h-2.07v2.76ZM131.51,155.13h2.07v-2.76h-2.07v2.76ZM130.99,146.48h1.5v-1.95h-1.5v1.95ZM130.99,144.17h1.5v-2.23h-1.5v2.23ZM130.99,141.6h1.5v-1.96h-1.5v1.96ZM130.99,139.29h1.5v-1.93h-1.5v1.93ZM130.99,137.01h1.5v-1.82h-1.5v1.82ZM130.64,144.52h-1.53v1.95h1.53v-1.95ZM127.75,180.22h2.07v-6.74h-2.07v6.74ZM127.75,172.32h2.07v-6.74h-2.07v6.74ZM127.75,158.37h2.07v-2.76h-2.07v2.76ZM127.75,155.13h2.07v-2.76h-2.07v2.76ZM126.98,146.48h1.78v-1.95h-1.78v1.95ZM126.98,144.17h1.78v-2.23h-1.78v2.23ZM126.98,141.6h1.78v-1.96h-1.78v1.96ZM126.98,139.29h1.78v-1.93h-1.78v1.93ZM126.98,137.01h1.78v-1.82h-1.78v1.82ZM129.36,134.88c0-.11,0-.21.03-.31l-2.18-1.22c-.18.44-.27.95-.25,1.53h2.4ZM123.54,144.52h-1.8v1.95h1.8v-1.95ZM120.77,180.22h2.07v-6.74h-2.07v6.74ZM120.77,172.32h2.07v-6.74h-2.07v6.74ZM120.77,158.37h2.07v-2.76h-2.07v2.76ZM120.77,155.13h2.07v-2.76h-2.07v2.76ZM119.89,146.48h1.5v-1.95h-1.5v1.95ZM119.89,144.17h1.5v-2.23h-1.5v2.23ZM119.89,141.6h1.5v-1.96h-1.5v1.96ZM119.89,139.29h1.5v-1.93h-1.5v1.93ZM119.89,137.01h1.5v-1.82h-1.5v1.82ZM119.55,144.52h-1.53v1.95h1.53v-1.95ZM117.01,180.22h2.07v-6.74h-2.07v6.74ZM117.01,172.32h2.07v-6.74h-2.07v6.74ZM117.01,158.37h2.07v-2.76h-2.07v2.76ZM117.01,155.13h2.07v-2.76h-2.07v2.76ZM115.89,146.48h1.78v-1.95h-1.78v1.95ZM115.89,144.17h1.78v-2.23h-1.78v2.23ZM115.89,141.6h1.78v-1.96h-1.78v1.96ZM115.89,139.29h1.78v-1.93h-1.78v1.93ZM115.89,137.01h1.78v-1.82h-1.78v1.82ZM118.27,134.88c0-.11,0-.21.03-.31l-2.18-1.22c-.18.44-.27.95-.25,1.53h2.4ZM111.58,26.02h-2.07v2.76h2.07v-2.76ZM111.58,29.26h-2.07v2.76h2.07v-2.76ZM111.58,36.92h-2.07v2.76h2.07v-2.76ZM111.58,40.15h-2.07v2.76h2.07v-2.76ZM111.58,46.88h-2.07v2.76h2.07v-2.76ZM111.58,50.12h-2.07v2.76h2.07v-2.76ZM111.58,57.52h-2.07v2.76h2.07v-2.76ZM111.58,60.76h-2.07v2.76h2.07v-2.76ZM111.58,68.17h-2.07v2.76h2.07v-2.76ZM111.58,71.4h-2.07v2.76h2.07v-2.76ZM111.58,78.81h-2.07v2.76h2.07v-2.76ZM111.58,82.04h-2.07v2.76h2.07v-2.76ZM111.58,89.45h-2.07v2.76h2.07v-2.76ZM111.58,92.68h-2.07v2.76h2.07v-2.76ZM111.58,100.09h-2.07v2.76h2.07v-2.76ZM111.58,103.33h-2.07v2.76h2.07v-2.76ZM109.43,180.26h1.71v-2.84h-1.71v2.84ZM109.43,176.94h1.71v-2.84h-1.71v2.84ZM109.43,169.33h1.71v-2.84h-1.71v2.84ZM109.43,166.01h1.71v-2.84h-1.71v2.84ZM109.43,158.4h1.71v-2.84h-1.71v2.84ZM109.43,155.08h1.71v-2.84h-1.71v2.84ZM109.43,147.47h1.71v-2.84h-1.71v2.84ZM109.43,144.15h1.71v-2.84h-1.71v2.84ZM98,179.44h.83v-1.17h-.83v1.17ZM98,178.02h.83v-.34h-.83v.34ZM98,177.43h.83v-3.03h-.83v3.03ZM98,174.16h.83v-.34h-.83v.34ZM98,173.57h.83v-2.45h-.83v2.45ZM98,170.87h.83v-.34h-.83v.34ZM98,170.28h.83v-1.12h-.83v1.12ZM98,159.16h.83v-1.17h-.83v1.17ZM98,157.74h.83v-.34h-.83v.34ZM98,157.15h.83v-3.03h-.83v3.03ZM98,153.88h.83v-.34h-.83v.34ZM98,153.29h.83v-2.45h-.83v2.45ZM98,150.59h.83v-.34h-.83v.34ZM98,150h.83v-1.12h-.83v1.12ZM98,146.74h.83v-1.17h-.83v1.17ZM98,145.33h.83v-.34h-.83v.34ZM98,144.74h.83v-3.03h-.83v3.03ZM98,141.47h.83v-.34h-.83v.34ZM98,140.88h.83v-2.45h-.83v2.45ZM98,138.18h.83v-.34h-.83v.34ZM98,137.59h.83v-1.12h-.83v1.12ZM96.61,179.44h1.14v-1.17h-1.14v1.17ZM96.61,178.02h1.14v-.34h-1.14v.34ZM96.61,177.43h1.14v-3.03h-1.14v3.03ZM96.61,174.16h1.14v-.34h-1.14v.34ZM96.61,173.57h1.14v-2.45h-1.14v2.45ZM96.61,170.87h1.14v-.34h-1.14v.34ZM96.61,170.28h1.14v-1.12h-1.14v1.12ZM96.61,159.16h1.14v-1.17h-1.14v1.17ZM96.61,157.74h1.14v-.34h-1.14v.34ZM96.61,157.15h1.14v-3.03h-1.14v3.03ZM96.61,153.88h1.14v-.34h-1.14v.34ZM96.61,153.29h1.14v-2.45h-1.14v2.45ZM96.61,150.59h1.14v-.34h-1.14v.34ZM96.61,150h1.14v-1.12h-1.14v1.12ZM96.61,146.74h1.14v-1.17h-1.14v1.17ZM96.61,145.33h1.14v-.34h-1.14v.34ZM96.61,144.74h1.14v-3.03h-1.14v3.03ZM96.61,141.47h1.14v-.34h-1.14v.34ZM96.61,140.88h1.14v-2.45h-1.14v2.45ZM96.61,138.18h1.14v-.34h-1.14v.34ZM96.61,137.59h1.14v-1.12h-1.14v1.12ZM95.23,179.44h1.14v-1.17h-1.14v1.17ZM95.23,178.02h1.14v-.34h-1.14v.34ZM95.23,177.43h1.14v-3.03h-1.14v3.03ZM95.23,174.16h1.14v-.34h-1.14v.34ZM95.23,173.57h1.14v-2.45h-1.14v2.45ZM95.23,170.87h1.14v-.34h-1.14v.34ZM95.23,170.28h1.14v-1.12h-1.14v1.12ZM95.23,159.16h1.14v-1.17h-1.14v1.17ZM95.23,157.74h1.14v-.34h-1.14v.34ZM95.23,157.15h1.14v-3.03h-1.14v3.03ZM95.23,153.88h1.14v-.34h-1.14v.34ZM95.23,153.29h1.14v-2.45h-1.14v2.45ZM95.23,150.59h1.14v-.34h-1.14v.34ZM95.23,150h1.14v-1.12h-1.14v1.12ZM95.23,146.74h1.14v-1.17h-1.14v1.17ZM95.23,145.33h1.14v-.34h-1.14v.34ZM95.23,144.74h1.14v-3.03h-1.14v3.03ZM95.23,141.47h1.14v-.34h-1.14v.34ZM95.23,140.88h1.14v-2.45h-1.14v2.45ZM95.23,138.18h1.14v-.34h-1.14v.34ZM95.23,137.59h1.14v-1.12h-1.14v1.12ZM94.23,179.44h.76v-1.17h-.76v1.17ZM94.23,178.02h.76v-.34h-.76v.34ZM94.23,177.43h.76v-3.03h-.76v3.03ZM94.23,174.16h.76v-.34h-.76v.34ZM94.23,173.57h.76v-2.45h-.76v2.45ZM94.23,170.87h.76v-.34h-.76v.34ZM94.23,170.28h.76v-1.12h-.76v1.12ZM94.23,159.16h.76v-1.17h-.76v1.17ZM94.23,157.74h.76v-.34h-.76v.34ZM94.23,157.15h.76v-3.03h-.76v3.03ZM94.23,153.88h.76v-.34h-.76v.34ZM94.23,153.29h.76v-2.45h-.76v2.45ZM94.23,150.59h.76v-.34h-.76v.34ZM94.23,150h.76v-1.12h-.76v1.12ZM94.23,146.74h.76v-1.17h-.76v1.17ZM94.23,145.33h.76v-.34h-.76v.34ZM94.23,144.74h.76v-3.03h-.76v3.03ZM94.23,141.47h.76v-.34h-.76v.34ZM94.23,140.88h.76v-2.45h-.76v2.45ZM94.23,138.18h.76v-.34h-.76v.34ZM94.23,137.59h.76v-1.12h-.76v1.12ZM83.46,126.78h1.23v-10.13h-1.23v10.13ZM76.62,126.91h-.56v2.27h.56v-2.27ZM77.76,126.91h-.56v2.27h.56v-2.27ZM78.48,181.8h.71v-3.64h-.71v3.64ZM78.48,177.59h.71v-3.64h-.71v3.64ZM78.33,129.19h.56v-2.27h-.56v2.27ZM77.05,181.8h.71v-3.64h-.71v3.64ZM77.05,177.59h.71v-3.64h-.71v3.64ZM75.96,137.3h1.05v-1.4h-1.05v1.4ZM62.18,126.91h-.56v2.27h.56v-2.27ZM63.9,126.91v2.27h.56v-2.27h-.56ZM67.94,163.18v-.53h-1.18v.53h1.18ZM66.75,163.57v1.82h1.18v-1.82h-1.18ZM67.94,162.27v-4.73h-1.18v4.73h1.18ZM67.94,157.15v-.53h-1.18v.53h1.18ZM67.94,156.23v-3.83h-1.18v3.83h1.18ZM67.94,152.01v-.53h-1.18v.53h1.18ZM67.94,151.09v-1.76h-1.18v1.76h1.18ZM66.77,148.84h1.15v-3.04l-1.15.67v2.37h0ZM68.26,126.91h-.56v2.27h.56v-2.27ZM69.4,126.91h-.56v2.27h.56v-2.27ZM69.43,145.24l-1.15.39v3.22h1.15v-3.61h0ZM70.1,163.18v-.53h-1.77v.53h1.77ZM68.32,163.57v1.82h1.77v-1.82h-1.77ZM70.1,162.27v-4.73h-1.77v4.73h1.77ZM70.1,157.15v-.53h-1.77v.53h1.77ZM70.1,156.23v-3.83h-1.77v3.83h1.77ZM70.1,152.01v-.53h-1.77v.53h1.77ZM70.1,151.09v-1.76h-1.77v1.76h1.77ZM70.54,126.91h-.56v2.27h.56v-2.27ZM70.81,135.9h-1.05v1.4h1.05v-1.4ZM70.94,145.16h-1.15v3.68h1.15v-3.68ZM72.26,163.18v-.53h-1.77v.53h1.77ZM70.48,163.57v1.82h1.77v-1.82h-1.77ZM72.26,162.27v-4.73h-1.77v4.73h1.77ZM72.26,157.15v-.53h-1.77v.53h1.77ZM72.26,156.23v-3.83h-1.77v3.83h1.77ZM72.26,152.01v-.53h-1.77v.53h1.77ZM72.26,151.09v-1.76h-1.77v1.76h1.77ZM71.68,126.91h-.56v2.27h.56v-2.27ZM71.29,145.24v3.61h1.15v-3.22l-1.15-.39h0ZM72.82,126.91h-.56v2.27h.56v-2.27ZM73.94,163.18v-.53h-1.3v.53h1.3ZM72.64,163.57v1.82h1.3v-1.82h-1.3ZM73.94,162.27v-4.73h-1.3v4.73h1.3ZM73.94,157.15v-.53h-1.3v.53h1.3ZM73.94,156.23v-3.83h-1.3v3.83h1.3ZM73.94,152.01v-.53h-1.3v.53h1.3ZM73.94,151.09v-1.76h-1.3v1.76h1.3ZM73.95,146.48l-1.15-.67v3.04h1.15v-2.37h0ZM74.91,129.19h.56v-2.27h-.56v2.27ZM66.31,181.57h7.65v-5.88h-.02c-.22-4.19-7.83-4.21-7.65.2h.01v5.68h0ZM65.04,129.19h.56v-2.27h-.56v2.27ZM63.83,137.3h1.05v-1.4h-1.05v1.4ZM62.98,181.8h.71v-3.64h-.71v3.64ZM62.98,177.59h.71v-3.64h-.71v3.64ZM62.76,129.19h.56v-2.27h-.56v2.27ZM61.55,181.8h.71v-3.64h-.71v3.64ZM61.55,177.59h.71v-3.64h-.71v3.64ZM54.22,126.78h1.23v-10.13h-1.23v10.13ZM46.14,179.44h.83v-1.17h-.83v1.17ZM46.14,178.02h.83v-.34h-.83v.34ZM46.14,177.43h.83v-3.03h-.83v3.03ZM46.14,174.16h.83v-.34h-.83v.34ZM46.14,173.57h.83v-2.45h-.83v2.45ZM46.14,170.87h.83v-.34h-.83v.34ZM46.14,170.28h.83v-1.12h-.83v1.12ZM46.14,159.16h.83v-1.17h-.83v1.17ZM46.14,157.74h.83v-.34h-.83v.34ZM46.14,157.15h.83v-3.03h-.83v3.03ZM46.14,153.88h.83v-.34h-.83v.34ZM46.14,153.29h.83v-2.45h-.83v2.45ZM46.14,150.59h.83v-.34h-.83v.34ZM46.14,150h.83v-1.12h-.83v1.12ZM46.14,146.74h.83v-1.17h-.83v1.17ZM46.14,145.33h.83v-.34h-.83v.34ZM46.14,144.74h.83v-3.03h-.83v3.03ZM46.14,141.47h.83v-.34h-.83v.34ZM46.14,140.88h.83v-2.45h-.83v2.45ZM46.14,138.18h.83v-.34h-.83v.34ZM46.14,137.59h.83v-1.12h-.83v1.12ZM44.76,179.44h1.14v-1.17h-1.14v1.17ZM44.76,178.02h1.14v-.34h-1.14v.34ZM44.76,177.43h1.14v-3.03h-1.14v3.03ZM44.76,174.16h1.14v-.34h-1.14v.34ZM44.76,173.57h1.14v-2.45h-1.14v2.45ZM44.76,170.87h1.14v-.34h-1.14v.34ZM44.76,170.28h1.14v-1.12h-1.14v1.12ZM44.76,159.16h1.14v-1.17h-1.14v1.17ZM44.76,157.74h1.14v-.34h-1.14v.34ZM44.76,157.15h1.14v-3.03h-1.14v3.03ZM44.76,153.88h1.14v-.34h-1.14v.34ZM44.76,153.29h1.14v-2.45h-1.14v2.45ZM44.76,150.59h1.14v-.34h-1.14v.34ZM44.76,150h1.14v-1.12h-1.14v1.12ZM44.76,146.74h1.14v-1.17h-1.14v1.17ZM44.76,145.33h1.14v-.34h-1.14v.34ZM44.76,144.74h1.14v-3.03h-1.14v3.03ZM44.76,141.47h1.14v-.34h-1.14v.34ZM44.76,140.88h1.14v-2.45h-1.14v2.45ZM44.76,138.18h1.14v-.34h-1.14v.34ZM44.76,137.59h1.14v-1.12h-1.14v1.12ZM43.37,179.44h1.14v-1.17h-1.14v1.17ZM43.37,178.02h1.14v-.34h-1.14v.34ZM43.37,177.43h1.14v-3.03h-1.14v3.03ZM43.37,174.16h1.14v-.34h-1.14v.34ZM43.37,173.57h1.14v-2.45h-1.14v2.45ZM43.37,170.87h1.14v-.34h-1.14v.34ZM43.37,170.28h1.14v-1.12h-1.14v1.12ZM43.37,159.16h1.14v-1.17h-1.14v1.17ZM43.37,157.74h1.14v-.34h-1.14v.34ZM43.37,157.15h1.14v-3.03h-1.14v3.03ZM43.37,153.88h1.14v-.34h-1.14v.34ZM43.37,153.29h1.14v-2.45h-1.14v2.45ZM43.37,150.59h1.14v-.34h-1.14v.34ZM43.37,150h1.14v-1.12h-1.14v1.12ZM43.37,146.74h1.14v-1.17h-1.14v1.17ZM43.37,145.33h1.14v-.34h-1.14v.34ZM43.37,144.74h1.14v-3.03h-1.14v3.03ZM43.37,141.47h1.14v-.34h-1.14v.34ZM43.37,140.88h1.14v-2.45h-1.14v2.45ZM43.37,138.18h1.14v-.34h-1.14v.34ZM43.37,137.59h1.14v-1.12h-1.14v1.12ZM42.37,179.44h.76v-1.17h-.76v1.17ZM42.37,178.02h.76v-.34h-.76v.34ZM42.37,177.43h.76v-3.03h-.76v3.03ZM42.37,174.16h.76v-.34h-.76v.34ZM42.37,173.57h.76v-2.45h-.76v2.45ZM42.37,170.87h.76v-.34h-.76v.34ZM42.37,170.28h.76v-1.12h-.76v1.12ZM42.37,159.16h.76v-1.17h-.76v1.17ZM42.37,157.74h.76v-.34h-.76v.34ZM42.37,157.15h.76v-3.03h-.76v3.03ZM42.37,153.88h.76v-.34h-.76v.34ZM42.37,153.29h.76v-2.45h-.76v2.45ZM42.37,150.59h.76v-.34h-.76v.34ZM42.37,150h.76v-1.12h-.76v1.12ZM42.37,146.74h.76v-1.17h-.76v1.17ZM42.37,145.33h.76v-.34h-.76v.34ZM42.37,144.74h.76v-3.03h-.76v3.03ZM42.37,141.47h.76v-.34h-.76v.34ZM42.37,140.88h.76v-2.45h-.76v2.45ZM42.37,138.18h.76v-.34h-.76v.34ZM42.37,137.59h.76v-1.12h-.76v1.12Z"/>
  </g>
</svg>