<?xml version="1.0" encoding="UTF-8"?>
<svg id="Layer_1" data-name="Layer 1" xmlns="http://www.w3.org/2000/svg" viewBox="0 0 2160 2160">
  <defs>
    <style>
      .cls-1 {
        fill: #b5d1ee;
      }
    </style>
  </defs>
  <path class="cls-1" d="M76.55,1352.99c2.6-1.51,13.61-6.58,15.83-6.58h85.6l-1.19-165.11,5.85-.06v6.17h3.17s0-6.1,0-6.1l6.5.06c0,5.2-.06,1.53-.06,6.1h3.96l.06-6.33,6.05.04.11,6.29,3.67.03c0-1.04.08-2.68.08-5.17v-1.32s5.96.02,5.96.02v6.44s4.71,0,4.71,0l.04-6.85,6.73-.1.11,6.69,4.73-.03s.13-34.96.13-42.39v-8.86c0-3.43.06-5.76.06-8.98h8.27s0,5.91,0,5.91h3.53v-5.91s5.91,0,5.91,0v5.91s3.53,0,3.53,0v-5.91s8.26,0,8.26,0v43.3c2.92,0,3.97,0,7.44-.23,0-3.16-.25-6.9.3-6.25h0c1.51,0,4.82-.08,8.21-.08,0,.32.02.62.02.9.05,1.99.05,3.2.05,5.05l3.01-.15.08-6.03,7.53-.15,1.65,6.1c-1.5-7.53,3.91-5.38,7.09-10.17,2.94,4.67,8.56,1.36,7.1,10.17l1.17-5.89,7.93.1.08,5.88,2.64.08.08-4.97,11.45.15.23,4.97,4.73.08.09-42.87,8.18.02c0,1.71.13,3.99.13,6.01,0,0,.73-.11,2.21-.11v-5.9h7.09s0,5.91,0,5.91l3.53-.02.1-5.88h8.16s0,59.76,0,59.76c0,0,1.65-.05,4.08-.05l.17-7.46,7.06-.12v7.29h3.79l-.11-7.13h6.33l.17,6.9h3.39v-6.9h6.05v6.85l3.62.06.06-6.9h6.16l.06,6.96,3-.06.11-6.9h4.45v-332.49c0-1.14-1.34-5.57-3.54-12.39h40.12l.64-41.24c0-.35-1.64-2.06-.73-2.97l56.13-24.96,57.22,24.4c.46,1.19-1.18,2.42-1.18,2.89v41.88h40.44l-3.92,14.68.06,112.73h20.06c.33-3.56-.04-6.55-.04-10.62h82.63v10.62h64.9l.09,201.22.11,9.57,3.34-7.9,7.6-20.06,14.82-1.16c-1.66-6.03,1.81-10.93,2.39-15.9,2.14-18.39-1.66-40.78-.04-59.61-5,.68-5.88,7.4-11.79,5.9-2.74-11.58,11.2-17.4,11.81-28.31l2.34,97.91,16,1.13-.17,4.74,19.58,41.31c1.7.88,1.67-13.55,4.7-9.42l3.5,15.86,10.74.13c2.45-1.72.27-9.8,4.63-8.92l4.33,9.25,19.71.03,4.87-9.27,4.93,9.48c5.06-.91,18.58,1.84,21.7-1.74,1.77-2.03,1.39-6.72,4.63-7.74l2.49,9.32,9.32.11c.23-3.35-2.05-5.44-2.4-8.82-.47-4.47,1.32-7.92,1.26-11.76-.12-8.08-4.07-16.23-2.33-25.95,4.02-22.41,23.16-54.27,26.79-77.03,1.33-8.37-1.05-18.71.29-27.43,1.43-1.86,2.15-.01,2.36,1.74.99,8.28-.96,17.76.28,25.7,3.61,23.13,21.12,53.1,26.6,76.12.6,2.51.18,3.95-.92,6.14,1.49,1.53,12.58-10.49,12.98-12.97h33.04v-28.52c0-8.93,8.8-12.6,9.47-18.05,3.07-25.21-2.43-53.83-2.5-79.07-.03-10.68,6.1-22.11,3.64-33.63l4.7-.02c.04-22.29,11.25-43.29,33.07-50.72-3.86-3.86-5.19-7.38-5.19-19.59l5.2-.44c0-7.36.1-21.31.04-27.02-.11-10.96-.04-15.6-.04-21.47,0-1.87,3.05-1.7,4.18-4.42l8.14-39.11c2.87,15.15,5.43,25.32,8.25,39.11.53,2.61,3.96,2.5,3.96,4.52,0,3.96-.04,17.77-.11,21.81-.07,4.23.35,21.36.35,26.57l5.92.6c0,8.09,1.09,12.03-4.73,18.79,4.7,3.35,10.24,5.13,14.71,8.95,11.22,9.58,18.24,27.84,17.13,42.45h4.74c.4,4.67-.64,10.1.06,14.67.6,3.87,3.04,6.66,3.51,11.82,2.59,28.44-3.19,57.96-2.26,86.23.13,3.97,8.73,11.89,8.73,17.67,0,3.39.5,11.59.51,14.81.02,4.92.05,7.35.05,14.06h32.45l13.56,12.98c.04-2.46-.32-4.92.32-7.36,7.62-29.03,27.21-59.46,26.09-89.77l1.9-12.58c1.3,8.3-.96,18.32.3,26.26,3.65,22.96,23.77,55.68,26.75,78.24,1.32,9.98-1.79,27.9-2.15,38.91-.09,2.65-.08,4.96-.1,7.59,4.73,0,8.92.12,8.92.12,1.13-2.26,2.09-5.43,3.47-9.55l3.72,9.49,22.66-.22,3.83-9.01,4.21,9.22,20.87-.2,4.16-9.09,4.81,8.71,10.73.02,3.49-15.99c4.91,1.3-.43,10.27,4.69,9.44,3.9-15.85,17.42-29.48,18.9-46.01h16.46c.25-3.23-.15-6.5.23-9.98,1.62-14.96,1.13-33.81,1.12-49.61,0-5.66-3.18-11.49-.11-17.09-5.01.66-5.83,7.56-11.64,7.33-2.21-9.04,2.37-11.09,5.54-16.38,2.56-4.26,4.15-9.65,7.26-13.38l1.38,99.23c3.38,0,12.8.02,15.01.02.35,2.32-.11,4.66.69,6.96,4.26,12.24,13.22,26.12,18.42,38.38,2.79.75,2.64-2.93,2.94-3.99.56-2,.08-4.3,2.87-4.93-.22,13.88,5.98,28.18,5.98,41.87,0,3.41-1.31,6.3-1.31,9.39.02,12.4.08,24.82.05,37.21h352.96c0-2.09-.1-2.34-.1-4.07,0-20.93-.01-54.69-.01-75.61,0-4.8-2.22-10.61-2.39-15.3-.33-8.78.11-28.96.11-37.77,0-.75-1.07-1.81-1.26-4.62,6.44-19.97,31.16-49.23,30.52-69.54-.21-6.63-5.14-9.46,1.89-14.85,6.18,5.16,1.85,9.29,1.77,14.73-.33,20.85,22.02,48.27,30.2,67.81,1.62,2.01-.7,4.52-.7,5.33v25.36l10.44-.17c0-4.31.18-5.36.18-9.26h14.16s0-12.99,0-12.99h25.96v12.98s12.99-.01,12.99-.01v9.45s11.28.04,11.28.04c1.09-1.57.57-24.49.57-27.88,0-1.21-2-2.53-.55-4.97,3.32-5.58,16.01-26.58,19.59-33.61,6.6-12.94,10.77-17.78,10.32-33.16-.15-5.04-4.83-8.36,1.89-13.11,4.24,5.68,1.64,7.75,1.65,13.11.04,19.43,20.96,49.28,30,64.35,2.56,4.37,0,3.58,0,7.69,0,12.24.3,26.92.3,39.18,0,6.33-3.12,12.06-3.12,15.97,0,52.44,1.23,104.9.04,157.33,7.6,0,15.46.31,21.61.31,25.65,0,49.46-2.26,74.6-.09,24.01,2.07,44.17,24.24,43.02,48.41H52.85c.76-16.87,8.94-33.22,23.69-41.79ZM1957.88,1134.74h2.7v-9.3h-2.7v9.3ZM1952.42,1134.74h2.7v-9.3h-2.7v9.3ZM1941.05,1134.74h2.7v-9.3h-2.7v9.3ZM1935.59,1134.74h2.7v-9.3h-2.7v9.3ZM1923.3,1134.74h2.7v-9.3h-2.7v9.3ZM1917.84,1134.74h2.7v-9.3h-2.7v9.3ZM1891.92,1188.29h-1.93v7.79h1.93v-7.79ZM1893.28,1219.08h-3.6v4.78h3.6v-4.78ZM1895.82,1188.29h-1.93v7.79h1.93v-7.79ZM1904.87,1322.76h2.43v-9.78h-2.43v9.78ZM1899.97,1322.76h2.43v-9.78h-2.43v9.78ZM1897.87,1280.9h2.85v-4h-2.85v4ZM1897.87,1276.05h2.85v-1.17h-2.85v1.17ZM1897.87,1274.04h2.85v-10.36h-2.85v10.36ZM1897.87,1262.83h2.85v-1.17h-2.85v1.17ZM1897.87,1260.82h2.85v-8.4h-2.85v8.4ZM1897.87,1251.57h2.85v-1.17h-2.85v1.17ZM1897.87,1249.55h2.85v-3.84h-2.85v3.84ZM1897.79,1196.08h1.93v-7.79h-1.93v7.79ZM1895.07,1322.76h2.43v-9.78h-2.43v9.78ZM1893.13,1280.9h3.89v-4h-3.89v4ZM1893.13,1276.05h3.89v-1.17h-3.89v1.17ZM1893.13,1274.04h3.89v-10.36h-3.89v10.36ZM1893.13,1262.83h3.89v-1.17h-3.89v1.17ZM1893.13,1260.82h3.89v-8.4h-3.89v8.4ZM1893.13,1251.57h3.89v-1.17h-3.89v1.17ZM1893.13,1249.55h3.89v-3.84h-3.89v3.84ZM1890.17,1322.76h2.43v-9.78h-2.43v9.78ZM1888.4,1280.9h3.89v-4h-3.89v4ZM1888.4,1276.05h3.89v-1.17h-3.89v1.17ZM1888.4,1274.04h3.89v-10.36h-3.89v10.36ZM1888.4,1262.83h3.89v-1.17h-3.89v1.17ZM1888.4,1260.82h3.89v-8.4h-3.89v8.4ZM1888.4,1251.57h3.89v-1.17h-3.89v1.17ZM1888.4,1249.55h3.89v-3.84h-3.89v3.84ZM1888.02,1188.29h-1.93v7.79h1.93v-7.79ZM1884.96,1280.9h2.59v-4h-2.59v4ZM1884.96,1276.05h2.59v-1.17h-2.59v1.17ZM1884.96,1274.04h2.59v-10.36h-2.59v10.36ZM1884.96,1262.83h2.59v-1.17h-2.59v1.17ZM1884.96,1260.82h2.59v-8.4h-2.59v8.4ZM1884.96,1251.57h2.59v-1.17h-2.59v1.17ZM1884.96,1249.55h2.59v-3.84h-2.59v3.84ZM1863.31,1188.29h-1.93v7.79h1.93v-7.79ZM1867.21,1188.29h-1.93v7.79h1.93v-7.79ZM1869.9,1276.05v-1.17h-3.89v1.17h3.89ZM1866.02,1276.9v4h3.89v-4h-3.89ZM1869.9,1274.04v-10.36h-3.89v10.36h3.89ZM1869.9,1262.83v-1.17h-3.89v1.17h3.89ZM1869.9,1260.82v-8.4h-3.89v8.4h3.89ZM1869.9,1251.57v-1.17h-3.89v1.17h3.89ZM1869.9,1249.55v-3.84h-3.89v3.84h3.89ZM1868.46,1223.86h3.6v-4.78h-3.6v4.78ZM1874.64,1276.05v-1.17h-3.89v1.17h3.89ZM1870.75,1276.9v4h3.89v-4h-3.89ZM1874.64,1274.04v-10.36h-3.89v10.36h3.89ZM1874.64,1262.83v-1.17h-3.89v1.17h3.89ZM1874.64,1260.82v-8.4h-3.89v8.4h3.89ZM1874.64,1251.57v-1.17h-3.89v1.17h3.89ZM1874.64,1249.55v-3.84h-3.89v3.84h3.89ZM1871.11,1196.08v-7.79h-1.93v7.79h1.93ZM1872.23,1164.33h-3.6v9.72h3.6v-9.72ZM1875.01,1188.29h-1.93v7.79h1.93v-7.79ZM1878.34,1274.04v-10.36h-2.85v10.36h2.85ZM1875.49,1274.89v1.17h2.85v-1.17h-2.85ZM1878.34,1262.83v-1.17h-2.85v1.17h2.85ZM1878.34,1260.82v-8.4h-2.85v8.4h2.85ZM1878.34,1251.57v-1.17h-2.85v1.17h2.85ZM1878.34,1249.55v-3.84h-2.85v3.84h2.85ZM1878.92,1188.29h-1.93v7.79h1.93v-7.79ZM1878.73,1322.76h2.43v-9.78h-2.43v9.78ZM1878.34,1276.9h-2.85v4h2.85v-4ZM1873.83,1322.76h2.43v-9.78h-2.43v9.78ZM1868.93,1322.76h2.43v-9.78h-2.43v9.78ZM1864.03,1322.76h2.43v-9.78h-2.43v9.78ZM1862.58,1280.9h2.59v-4h-2.59v4ZM1862.58,1276.05h2.59v-1.17h-2.59v1.17ZM1862.58,1274.04h2.59v-10.36h-2.59v10.36ZM1862.58,1262.83h2.59v-1.17h-2.59v1.17ZM1862.58,1260.82h2.59v-8.4h-2.59v8.4ZM1862.58,1251.57h2.59v-1.17h-2.59v1.17ZM1862.58,1249.55h2.59v-3.84h-2.59v3.84ZM1859.13,1322.76h2.43v-9.78h-2.43v9.78ZM1842.5,1188.29h-1.93v7.79h1.93v-7.79ZM1842.79,1245.71h-2.59v3.84h2.59v-3.84ZM1842.79,1250.4h-2.59v1.17h2.59v-1.17ZM1842.79,1252.42h-2.59v8.4h2.59v-8.4ZM1842.79,1261.67h-2.59v1.17h2.59v-1.17ZM1842.79,1263.68h-2.59v10.36h2.59v-10.36ZM1842.79,1274.89h-2.59v1.17h2.59v-1.17ZM1846.4,1188.29h-1.93v7.79h1.93v-7.79ZM1847.53,1245.71h-3.89v3.84h3.89v-3.84ZM1847.53,1250.4h-3.89v1.17h3.89v-1.17ZM1847.53,1252.42h-3.89v8.4h3.89v-8.4ZM1847.53,1261.67h-3.89v1.17h3.89v-1.17ZM1847.53,1263.68h-3.89v10.36h3.89v-10.36ZM1847.53,1274.89h-3.89v1.17h3.89v-1.17ZM1850.3,1188.29h-1.93v7.79h1.93v-7.79ZM1851.74,1219.08h-3.6v4.78h3.6v-4.78ZM1852.26,1245.71h-3.89v3.84h3.89v-3.84ZM1852.26,1250.4h-3.89v1.17h3.89v-1.17ZM1852.26,1252.42h-3.89v8.4h3.89v-8.4ZM1852.26,1261.67h-3.89v1.17h3.89v-1.17ZM1852.26,1263.68h-3.89v10.36h3.89v-10.36ZM1852.26,1274.89h-3.89v1.17h3.89v-1.17ZM1853.11,1280.9h2.85v-4h-2.85v4ZM1853.11,1276.05h2.85v-1.17h-2.85v1.17ZM1853.11,1274.04h2.85v-10.36h-2.85v10.36ZM1853.11,1262.83h2.85v-1.17h-2.85v1.17ZM1853.11,1260.82h2.85v-8.4h-2.85v8.4ZM1853.11,1251.57h2.85v-1.17h-2.85v1.17ZM1853.11,1249.55h2.85v-3.84h-2.85v3.84ZM1852.27,1196.08h1.93v-7.79h-1.93v7.79ZM1852.26,1276.9h-3.89v4h3.89v-4ZM1847.7,1322.76h2.43v-9.78h-2.43v9.78ZM1847.53,1276.9h-3.89v4h3.89v-4ZM1842.8,1322.76h2.43v-9.78h-2.43v9.78ZM1842.79,1276.9h-2.59v4h2.59v-4ZM1837.89,1322.76h2.43v-9.78h-2.43v9.78ZM1832.99,1322.76h2.43v-9.78h-2.43v9.78ZM1819.09,1134.74h2.7v-9.3h-2.7v9.3ZM1813.62,1134.74h2.7v-9.3h-2.7v9.3ZM1802.26,1134.74h2.7v-9.3h-2.7v9.3ZM1796.8,1134.74h2.7v-9.3h-2.7v9.3ZM1784.5,1134.74h2.7v-9.3h-2.7v9.3ZM1779.04,1134.74h2.7v-9.3h-2.7v9.3ZM1643.65,1349.74l44.86-.12c27.73,0,55.51.39,83.23.05v-24.4c0-11.3-23.38-29.69-66.78-29.69-19.74,0-61.49,8.29-61.49,34.21,0,8.44.17,8.47.17,19.95ZM1506.21,1349.74l44.86-.12c27.73,0,55.51.39,83.23.05v-24.4c0-11.3-23.38-29.69-66.78-29.69-19.74,0-61.49,8.29-61.49,34.21,0,8.44.17,8.47.17,19.95ZM1417.67,1318.43c0,8.33.13,19.78.13,31.31l9.49-.12c2.95,0,5.9,0,8.85.01,24.79.06,35.94.34,60.71.04v-24.4c0-11.3-23.38-29.69-66.78-29.69-3.5,0-7.98.26-12.5.83,0,0,.09.69.09,22.02ZM1397.55,1231.23h4.06v-7.64h-4.06v7.64ZM1397.55,1222.28h4.06v-7.64h-4.06v7.64ZM1392.06,1319.59h4.95v-7.64h-4.95v7.64ZM1392.06,1310.63h4.95v-7.64h-4.95v7.64ZM1392.06,1290.13h4.95v-7.64h-4.95v7.64ZM1392.06,1281.18h4.95v-7.64h-4.95v7.64ZM1392.06,1260.68h4.95v-7.64h-4.95v7.64ZM1392.06,1251.73h4.95v-7.64h-4.95v7.64ZM1379.15,1231.23h4.06v-7.64h-4.06v7.64ZM1379.15,1222.28h4.06v-7.64h-4.06v7.64ZM1369.6,1319.59h4.95v-7.64h-4.95v7.64ZM1369.6,1310.63h4.95v-7.64h-4.95v7.64ZM1369.6,1290.13h4.95v-7.64h-4.95v7.64ZM1369.6,1281.18h4.95v-7.64h-4.95v7.64ZM1369.6,1260.68h4.95v-7.64h-4.95v7.64ZM1369.6,1251.73h4.95v-7.64h-4.95v7.64ZM1361.25,1231.23h4.06v-7.64h-4.06v7.64ZM1361.25,1222.28h4.06v-7.64h-4.06v7.64ZM1347.75,1319.59h4.95v-7.64h-4.95v7.64ZM1347.75,1310.63h4.95v-7.64h-4.95v7.64ZM1347.75,1290.13h4.95v-7.64h-4.95v7.64ZM1347.75,1281.18h4.95v-7.64h-4.95v7.64ZM1347.75,1260.68h4.95v-7.64h-4.95v7.64ZM1347.75,1251.73h4.95v-7.64h-4.95v7.64ZM1343.88,1231.23h4.06v-7.64h-4.06v7.64ZM1343.88,1222.28h4.06v-7.64h-4.06v7.64ZM1307.57,1372.55h5.85v-7.79h-5.85v7.79ZM1307.57,1363.42h5.85v-7.79h-5.85v7.79ZM1307.57,1342.51h5.85v-7.79h-5.85v7.79ZM1307.57,1333.38h5.85v-7.79h-5.85v7.79ZM1307.57,1312.47h5.85v-7.79h-5.85v7.79ZM1307.57,1303.34h5.85v-7.79h-5.85v7.79ZM1307.57,1282.43h5.85v-7.79h-5.85v7.79ZM1307.57,1273.3h5.85v-7.79h-5.85v7.79ZM1307.54,1216.93h-5.85v7.79h5.85v-7.79ZM1307.54,1226.07h-5.85v7.79h5.85v-7.79ZM1296.95,1372.55h5.85v-7.79h-5.85v7.79ZM1296.95,1363.42h5.85v-7.79h-5.85v7.79ZM1296.95,1342.51h5.85v-7.79h-5.85v7.79ZM1296.95,1333.38h5.85v-7.79h-5.85v7.79ZM1296.95,1312.47h5.85v-7.79h-5.85v7.79ZM1296.95,1303.34h5.85v-7.79h-5.85v7.79ZM1296.95,1282.43h5.85v-7.79h-5.85v7.79ZM1296.95,1273.3h5.85v-7.79h-5.85v7.79ZM1277.22,1216.93h-5.85v7.79h5.85v-7.79ZM1277.25,1372.55h5.85v-7.79h-5.85v7.79ZM1277.25,1363.42h5.85v-7.79h-5.85v7.79ZM1277.25,1342.51h5.85v-7.79h-5.85v7.79ZM1277.25,1333.38h5.85v-7.79h-5.85v7.79ZM1277.25,1312.47h5.85v-7.79h-5.85v7.79ZM1277.25,1303.34h5.85v-7.79h-5.85v7.79ZM1277.25,1282.43h5.85v-7.79h-5.85v7.79ZM1277.25,1273.3h5.85v-7.79h-5.85v7.79ZM1277.22,1226.07h-5.85v7.79h5.85v-7.79ZM1266.63,1372.55h5.85v-7.79h-5.85v7.79ZM1266.63,1363.42h5.85v-7.79h-5.85v7.79ZM1266.63,1342.51h5.85v-7.79h-5.85v7.79ZM1266.63,1333.38h5.85v-7.79h-5.85v7.79ZM1266.63,1312.47h5.85v-7.79h-5.85v7.79ZM1266.63,1303.34h5.85v-7.79h-5.85v7.79ZM1266.63,1282.43h5.85v-7.79h-5.85v7.79ZM1266.63,1273.3h5.85v-7.79h-5.85v7.79ZM1238.24,1155.19h1.93v-7.79h-1.93v7.79ZM1234.34,1155.19h1.93v-7.79h-1.93v7.79ZM1230.44,1155.19h1.93v-7.79h-1.93v7.79ZM1228.47,1147.4h-1.93v7.79h1.93v-7.79ZM1224.78,1322.36h3.6v-9.72h-3.6v9.72ZM1224.78,1284.88h3.6v-9.72h-3.6v9.72ZM1224.78,1247.39h3.6v-9.72h-3.6v9.72ZM1224.78,1209.91h3.6v-9.72h-3.6v9.72ZM1222.63,1155.19h1.93v-7.79h-1.93v7.79ZM1218.73,1155.19h1.93v-7.79h-1.93v7.79ZM1214.83,1155.19h1.93v-7.79h-1.93v7.79ZM1214.29,1133.16h3.6v-9.72h-3.6v9.72ZM1208.96,1147.4h-1.93v7.79h1.93v-7.79ZM1210.93,1155.19h1.93v-7.79h-1.93v7.79ZM1206.45,1322.36h3.6v-9.72h-3.6v9.72ZM1206.45,1284.88h3.6v-9.72h-3.6v9.72ZM1206.45,1247.39h3.6v-9.72h-3.6v9.72ZM1206.45,1209.91h3.6v-9.72h-3.6v9.72ZM1203.12,1155.19h1.93v-7.79h-1.93v7.79ZM1199.22,1155.19h1.93v-7.79h-1.93v7.79ZM1195.32,1155.19h1.93v-7.79h-1.93v7.79ZM1191.42,1155.19h1.93v-7.79h-1.93v7.79ZM1144.73,1178.16h-5.85v7.79h5.85v-7.79ZM1150.6,1227.93h-5.85v15.73h5.85v-15.73ZM1150.6,1267.42h-5.85v5.52h5.85v-5.52ZM1150.6,1278.07h-5.85v5.52h5.85v-5.52ZM1134.14,1354.57h16.47v-31h-16.47v31ZM1134.14,1283.59h5.85v-5.52h-5.85v5.52ZM1134.14,1272.94h5.85v-5.52h-5.85v5.52ZM1134.14,1243.66h5.85v-15.73h-5.85v15.73ZM1101.03,987.21h-1.93v7.79h1.93v-7.79ZM1102.39,1017.99h-3.6v4.78h3.6v-4.78ZM1104.94,987.21h-1.93v7.79h1.93v-7.79ZM1106.61,1111.9h-2.43v9.78h2.43v-9.78ZM1108.84,987.21h-1.93v7.79h1.93v-7.79ZM1109.83,1044.62h-2.85v3.84h2.85v-3.84ZM1109.83,1049.32h-2.85v1.17h2.85v-1.17ZM1109.83,1051.33h-2.85v8.4h2.85v-8.4ZM1109.83,1060.58h-2.85v1.17h2.85v-1.17ZM1109.83,1062.6h-2.85v10.36h2.85v-10.36ZM1109.83,1073.81h-2.85v1.17h2.85v-1.17ZM1109.83,1075.82h-2.85v4h2.85v-4ZM1111.51,1111.9h-2.43v9.78h2.43v-9.78ZM1108.57,1178.16v7.79h5.85v-7.79h-5.85ZM1116.41,1111.9h-2.43v9.78h2.43v-9.78ZM1120.29,1227.93h-5.85v15.73h5.85v-15.73ZM1120.29,1267.42h-5.85v5.52h5.85v-5.52ZM1120.29,1278.07h-5.85v5.52h5.85v-5.52ZM1103.82,1354.57h16.47v-31h-16.47v31ZM1103.82,1283.59h5.85v-5.52h-5.85v5.52ZM1103.82,1272.94h5.85v-5.52h-5.85v5.52ZM1103.82,1243.66h5.85v-15.73h-5.85v15.73ZM1102.25,1079.82h3.89v-4h-3.89v4ZM1102.25,1074.97h3.89v-1.17h-3.89v1.17ZM1102.25,1072.96h3.89v-10.36h-3.89v10.36ZM1102.25,1061.75h3.89v-1.17h-3.89v1.17ZM1102.25,1059.73h3.89v-8.4h-3.89v8.4ZM1102.25,1050.48h3.89v-1.17h-3.89v1.17ZM1102.25,1048.47h3.89v-3.84h-3.89v3.84ZM1099.28,1121.68h2.43v-9.78h-2.43v9.78ZM1097.51,1079.82h3.89v-4h-3.89v4ZM1097.51,1074.97h3.89v-1.17h-3.89v1.17ZM1097.51,1072.96h3.89v-10.36h-3.89v10.36ZM1097.51,1061.75h3.89v-1.17h-3.89v1.17ZM1097.51,1059.73h3.89v-8.4h-3.89v8.4ZM1097.51,1050.48h3.89v-1.17h-3.89v1.17ZM1097.51,1048.47h3.89v-3.84h-3.89v3.84ZM1097.13,987.21h-1.93v7.79h1.93v-7.79ZM1094.07,1079.82h2.59v-4h-2.59v4ZM1094.07,1074.97h2.59v-1.17h-2.59v1.17ZM1094.07,1072.96h2.59v-10.36h-2.59v10.36ZM1094.07,1061.75h2.59v-1.17h-2.59v1.17ZM1094.07,1059.73h2.59v-8.4h-2.59v8.4ZM1094.07,1050.48h2.59v-1.17h-2.59v1.17ZM1094.07,1048.47h2.59v-3.84h-2.59v3.84ZM1072.42,987.21h-1.93v7.79h1.93v-7.79ZM1086.16,890.94h-13.22v21.72h13.22v-21.72ZM1088.21,1272.94v-5.52h-5.85v5.52h5.85ZM1082.37,1278.07v5.52h5.85v-5.52h-5.85ZM1088.21,1243.66v-15.73h-5.85v15.73h5.85ZM1079.02,1072.96v-10.36h-3.89v10.36h3.89ZM1075.13,1073.81v1.17h3.89v-1.17h-3.89ZM1079.02,1061.75v-1.17h-3.89v1.17h3.89ZM1079.02,1059.73v-8.4h-3.89v8.4h3.89ZM1079.02,1050.48v-1.17h-3.89v1.17h3.89ZM1079.02,1048.47v-3.84h-3.89v3.84h3.89ZM1077.57,1022.77h3.6v-4.78h-3.6v4.78ZM1080.23,995v-7.79h-1.93v7.79h1.93ZM1077.75,972.97h3.6v-9.72h-3.6v9.72ZM1079.87,1044.62v3.84h3.89v-3.84h-3.89ZM1079.87,1051.33v8.4h3.89v-8.4h-3.89ZM1083.76,1050.48v-1.17h-3.89v1.17h3.89ZM1079.87,1060.58v1.17h3.89v-1.17h-3.89ZM1079.87,1062.6v10.36h3.89v-10.36h-3.89ZM1079.87,1073.81v1.17h3.89v-1.17h-3.89ZM1078.05,1111.9v9.78h2.43v-9.78h-2.43ZM1082.2,995h1.93v-7.79h-1.93v7.79ZM1084.6,1048.47h2.85v-3.84h-2.85v3.84ZM1082.95,1111.9v9.78h2.43v-9.78h-2.43ZM1084.6,1049.32v1.17h2.85v-1.17h-2.85ZM1084.6,1051.33v8.4h2.85v-8.4h-2.85ZM1084.6,1060.58v1.17h2.85v-1.17h-2.85ZM1084.6,1062.6v10.36h2.85v-10.36h-2.85ZM1084.6,1073.81v1.17h2.85v-1.17h-2.85ZM1084.6,1075.82v4h2.85v-4h-2.85ZM1083.76,1079.82v-4h-3.89v4h3.89ZM1082.34,1178.16h-5.85v7.79h5.85v-7.79ZM1079.02,1079.82v-4h-3.89v4h3.89ZM1075.57,1111.9h-2.43v9.78h2.43v-9.78ZM1074.39,995h1.93v-7.79h-1.93v7.79ZM1088.03,987.21h-1.93v7.79h1.93v-7.79ZM1090.28,1111.9h-2.43v9.78h2.43v-9.78ZM1071.75,1354.57h16.47v-31h-16.47v31ZM1071.75,1283.59h5.85v-5.52h-5.85v5.52ZM1071.75,1272.94h5.85v-5.52h-5.85v5.52ZM1071.75,1243.66h5.85v-15.73h-5.85v15.73ZM1071.69,1079.82h2.59v-4h-2.59v4ZM1071.69,1074.97h2.59v-1.17h-2.59v1.17ZM1071.69,1072.96h2.59v-10.36h-2.59v10.36ZM1071.69,1061.75h2.59v-1.17h-2.59v1.17ZM1071.69,1059.73h2.59v-8.4h-2.59v8.4ZM1071.69,1050.48h2.59v-1.17h-2.59v1.17ZM1071.69,1048.47h2.59v-3.84h-2.59v3.84ZM1068.24,1121.68h2.43v-9.78h-2.43v9.78ZM1044.53,1111.9h-2.43v9.78h2.43v-9.78ZM1046.18,1178.16v7.79h5.85v-7.79h-5.85ZM1047.01,1121.68h2.43v-9.78h-2.43v9.78ZM1051.61,987.21h-1.93v7.79h1.93v-7.79ZM1051.9,1044.62h-2.59v3.84h2.59v-3.84ZM1051.9,1049.32h-2.59v1.17h2.59v-1.17ZM1051.9,1051.33h-2.59v8.4h2.59v-8.4ZM1051.9,1060.58h-2.59v1.17h2.59v-1.17ZM1051.9,1062.6h-2.59v10.36h2.59v-10.36ZM1051.9,1073.81h-2.59v1.17h2.59v-1.17ZM1051.9,1075.82h-2.59v4h2.59v-4ZM1051.91,1121.68h2.43v-9.78h-2.43v9.78ZM1057.9,1272.94v-5.52h-5.85v5.52h5.85ZM1052.05,1278.07v5.52h5.85v-5.52h-5.85ZM1057.9,1243.66v-15.73h-5.85v15.73h5.85ZM1055.51,987.21h-1.93v7.79h1.93v-7.79ZM1056.64,1044.62h-3.89v3.84h3.89v-3.84ZM1056.64,1049.32h-3.89v1.17h3.89v-1.17ZM1056.64,1051.33h-3.89v8.4h3.89v-8.4ZM1056.64,1060.58h-3.89v1.17h3.89v-1.17ZM1056.64,1062.6h-3.89v10.36h3.89v-10.36ZM1056.64,1073.81h-3.89v1.17h3.89v-1.17ZM1056.64,1075.82h-3.89v4h3.89v-4ZM1059.42,987.21h-1.93v7.79h1.93v-7.79ZM1060.85,1017.99h-3.6v4.78h3.6v-4.78ZM1061.38,1044.62h-3.89v3.84h3.89v-3.84ZM1061.38,1049.32h-3.89v1.17h3.89v-1.17ZM1061.38,1051.33h-3.89v8.4h3.89v-8.4ZM1061.38,1060.58h-3.89v1.17h3.89v-1.17ZM1061.38,1062.6h-3.89v10.36h3.89v-10.36ZM1061.38,1073.81h-3.89v1.17h3.89v-1.17ZM1062.23,1079.82h2.85v-4h-2.85v4ZM1062.23,1074.97h2.85v-1.17h-2.85v1.17ZM1062.23,1072.96h2.85v-10.36h-2.85v10.36ZM1062.23,1061.75h2.85v-1.17h-2.85v1.17ZM1062.23,1059.73h2.85v-8.4h-2.85v8.4ZM1062.23,1050.48h2.85v-1.17h-2.85v1.17ZM1062.23,1048.47h2.85v-3.84h-2.85v3.84ZM1061.39,995h1.93v-7.79h-1.93v7.79ZM1061.38,1075.82h-3.89v4h3.89v-4ZM1059.24,1111.9h-2.43v9.78h2.43v-9.78ZM1041.43,1354.57h16.47v-31h-16.47v31ZM1041.43,1283.59h5.85v-5.52h-5.85v5.52ZM1041.43,1272.94h5.85v-5.52h-5.85v5.52ZM1041.43,1243.66h5.85v-15.73h-5.85v15.73ZM1019.47,1178.16h-5.85v7.79h5.85v-7.79ZM1025.35,1227.93h-5.85v15.73h5.85v-15.73ZM1025.35,1267.42h-5.85v5.52h5.85v-5.52ZM1025.35,1278.07h-5.85v5.52h5.85v-5.52ZM1008.88,1354.57h16.47v-31h-16.47v31ZM1008.88,1283.59h5.85v-5.52h-5.85v5.52ZM1008.88,1272.94h5.85v-5.52h-5.85v5.52ZM1008.88,1243.66h5.85v-15.73h-5.85v15.73ZM968.79,1155.19h1.93v-7.79h-1.93v7.79ZM964.88,1155.19h1.93v-7.79h-1.93v7.79ZM960.98,1155.19h1.93v-7.79h-1.93v7.79ZM959.01,1147.4h-1.93v7.79h1.93v-7.79ZM955.33,1322.36h3.6v-9.72h-3.6v9.72ZM955.33,1284.88h3.6v-9.72h-3.6v9.72ZM955.33,1247.39h3.6v-9.72h-3.6v9.72ZM955.33,1209.91h3.6v-9.72h-3.6v9.72ZM953.18,1155.19h1.93v-7.79h-1.93v7.79ZM949.28,1155.19h1.93v-7.79h-1.93v7.79ZM945.37,1155.19h1.93v-7.79h-1.93v7.79ZM944.83,1133.16h3.6v-9.72h-3.6v9.72ZM939.5,1147.4h-1.93v7.79h1.93v-7.79ZM941.47,1155.19h1.93v-7.79h-1.93v7.79ZM936.99,1322.36h3.6v-9.72h-3.6v9.72ZM936.99,1284.88h3.6v-9.72h-3.6v9.72ZM936.99,1247.39h3.6v-9.72h-3.6v9.72ZM936.99,1209.91h3.6v-9.72h-3.6v9.72ZM933.67,1155.19h1.93v-7.79h-1.93v7.79ZM929.76,1155.19h1.93v-7.79h-1.93v7.79ZM925.86,1155.19h1.93v-7.79h-1.93v7.79ZM921.96,1155.19h1.93v-7.79h-1.93v7.79ZM891.6,1216.93h-5.85v7.79h5.85v-7.79ZM891.63,1372.55h5.85v-7.79h-5.85v7.79ZM891.63,1363.42h5.85v-7.79h-5.85v7.79ZM891.63,1342.51h5.85v-7.79h-5.85v7.79ZM891.63,1333.38h5.85v-7.79h-5.85v7.79ZM891.63,1312.47h5.85v-7.79h-5.85v7.79ZM891.63,1303.34h5.85v-7.79h-5.85v7.79ZM891.63,1282.43h5.85v-7.79h-5.85v7.79ZM891.63,1273.3h5.85v-7.79h-5.85v7.79ZM891.6,1226.07h-5.85v7.79h5.85v-7.79ZM881.01,1372.55h5.85v-7.79h-5.85v7.79ZM881.01,1363.42h5.85v-7.79h-5.85v7.79ZM881.01,1342.51h5.85v-7.79h-5.85v7.79ZM881.01,1333.38h5.85v-7.79h-5.85v7.79ZM881.01,1312.47h5.85v-7.79h-5.85v7.79ZM881.01,1303.34h5.85v-7.79h-5.85v7.79ZM881.01,1282.43h5.85v-7.79h-5.85v7.79ZM881.01,1273.3h5.85v-7.79h-5.85v7.79ZM861.28,1216.93h-5.85v7.79h5.85v-7.79ZM861.32,1372.55h5.85v-7.79h-5.85v7.79ZM861.32,1363.42h5.85v-7.79h-5.85v7.79ZM861.32,1342.51h5.85v-7.79h-5.85v7.79ZM861.32,1333.38h5.85v-7.79h-5.85v7.79ZM861.32,1312.47h5.85v-7.79h-5.85v7.79ZM861.32,1303.34h5.85v-7.79h-5.85v7.79ZM861.32,1282.43h5.85v-7.79h-5.85v7.79ZM861.32,1273.3h5.85v-7.79h-5.85v7.79ZM861.28,1226.07h-5.85v7.79h5.85v-7.79ZM850.69,1372.55h5.85v-7.79h-5.85v7.79ZM850.69,1363.42h5.85v-7.79h-5.85v7.79ZM850.69,1342.51h5.85v-7.79h-5.85v7.79ZM850.69,1333.38h5.85v-7.79h-5.85v7.79ZM850.69,1312.47h5.85v-7.79h-5.85v7.79ZM850.69,1303.34h5.85v-7.79h-5.85v7.79ZM850.69,1282.43h5.85v-7.79h-5.85v7.79ZM850.69,1273.3h5.85v-7.79h-5.85v7.79ZM816.12,1231.23h4.06v-7.64h-4.06v7.64ZM816.12,1222.28h4.06v-7.64h-4.06v7.64ZM810.63,1319.59h4.95v-7.64h-4.95v7.64ZM810.63,1310.63h4.95v-7.64h-4.95v7.64ZM810.63,1290.13h4.95v-7.64h-4.95v7.64ZM810.63,1281.18h4.95v-7.64h-4.95v7.64ZM810.63,1260.68h4.95v-7.64h-4.95v7.64ZM810.63,1251.73h4.95v-7.64h-4.95v7.64ZM797.72,1231.23h4.06v-7.64h-4.06v7.64ZM797.72,1222.28h4.06v-7.64h-4.06v7.64ZM788.17,1319.59h4.95v-7.64h-4.95v7.64ZM788.17,1310.63h4.95v-7.64h-4.95v7.64ZM788.17,1290.13h4.95v-7.64h-4.95v7.64ZM788.17,1281.18h4.95v-7.64h-4.95v7.64ZM788.17,1260.68h4.95v-7.64h-4.95v7.64ZM788.17,1251.73h4.95v-7.64h-4.95v7.64ZM779.81,1231.23h4.06v-7.64h-4.06v7.64ZM779.81,1222.28h4.06v-7.64h-4.06v7.64ZM766.32,1319.59h4.95v-7.64h-4.95v7.64ZM766.32,1310.63h4.95v-7.64h-4.95v7.64ZM766.32,1290.13h4.95v-7.64h-4.95v7.64ZM766.32,1281.18h4.95v-7.64h-4.95v7.64ZM766.32,1260.68h4.95v-7.64h-4.95v7.64ZM766.32,1251.73h4.95v-7.64h-4.95v7.64ZM762.45,1231.23h4.06v-7.64h-4.06v7.64ZM762.45,1222.28h4.06v-7.64h-4.06v7.64ZM703.71,1342.29h6.14v-9.45h-6.14v9.45ZM703.71,1331.21h6.14v-9.45h-6.14v9.45ZM703.71,1305.85h6.14v-9.45h-6.14v9.45ZM703.71,1294.77h6.14v-9.45h-6.14v9.45ZM703.71,1269.41h6.14v-9.45h-6.14v9.45ZM703.71,1258.33h6.14v-9.45h-6.14v9.45ZM703.71,1233.15h6.14v-9.45h-6.14v9.45ZM703.71,1222.08h6.14v-9.45h-6.14v9.45ZM703.71,1196.71h6.14v-9.45h-6.14v9.45ZM703.71,1185.64h6.14v-9.45h-6.14v9.45ZM703.71,1160.27h6.14v-9.45h-6.14v9.45ZM703.71,1149.2h6.14v-9.45h-6.14v9.45ZM703.71,1123.83h6.14v-9.45h-6.14v9.45ZM703.71,1112.76h6.14v-9.45h-6.14v9.45ZM703.71,1087.39h6.14v-9.45h-6.14v9.45ZM703.71,1076.32h6.14v-9.45h-6.14v9.45ZM703.71,1050.95h6.14v-9.45h-6.14v9.45ZM703.71,1039.88h6.14v-9.45h-6.14v9.45ZM692.54,1342.29h6.14v-9.45h-6.14v9.45ZM692.54,1331.21h6.14v-9.45h-6.14v9.45ZM692.54,1305.85h6.14v-9.45h-6.14v9.45ZM692.54,1294.77h6.14v-9.45h-6.14v9.45ZM692.54,1269.41h6.14v-9.45h-6.14v9.45ZM692.54,1258.33h6.14v-9.45h-6.14v9.45ZM692.54,1233.15h6.14v-9.45h-6.14v9.45ZM692.54,1222.08h6.14v-9.45h-6.14v9.45ZM692.54,1196.71h6.14v-9.45h-6.14v9.45ZM692.54,1185.64h6.14v-9.45h-6.14v9.45ZM692.54,1160.27h6.14v-9.45h-6.14v9.45ZM692.54,1149.2h6.14v-9.45h-6.14v9.45ZM692.54,1123.83h6.14v-9.45h-6.14v9.45ZM692.54,1112.76h6.14v-9.45h-6.14v9.45ZM692.54,1087.39h6.14v-9.45h-6.14v9.45ZM692.54,1076.32h6.14v-9.45h-6.14v9.45ZM692.54,1050.95h6.14v-9.45h-6.14v9.45ZM692.54,1039.88h6.14v-9.45h-6.14v9.45ZM671.85,1342.29h6.14v-9.45h-6.14v9.45ZM671.85,1331.21h6.14v-9.45h-6.14v9.45ZM671.85,1305.85h6.14v-9.45h-6.14v9.45ZM671.85,1294.77h6.14v-9.45h-6.14v9.45ZM671.85,1269.41h6.14v-9.45h-6.14v9.45ZM671.85,1258.33h6.14v-9.45h-6.14v9.45ZM671.85,1233.15h6.14v-9.45h-6.14v9.45ZM671.85,1222.08h6.14v-9.45h-6.14v9.45ZM671.85,1196.71h6.14v-9.45h-6.14v9.45ZM671.85,1185.64h6.14v-9.45h-6.14v9.45ZM671.85,1160.27h6.14v-9.45h-6.14v9.45ZM671.85,1149.2h6.14v-9.45h-6.14v9.45ZM671.85,1123.83h6.14v-9.45h-6.14v9.45ZM671.85,1112.76h6.14v-9.45h-6.14v9.45ZM671.85,1087.39h6.14v-9.45h-6.14v9.45ZM671.85,1076.32h6.14v-9.45h-6.14v9.45ZM671.85,1050.95h6.14v-9.45h-6.14v9.45ZM671.85,1039.88h6.14v-9.45h-6.14v9.45ZM660.69,1342.29h6.14v-9.45h-6.14v9.45ZM660.69,1331.21h6.14v-9.45h-6.14v9.45ZM660.69,1305.85h6.14v-9.45h-6.14v9.45ZM660.69,1294.77h6.14v-9.45h-6.14v9.45ZM660.69,1269.41h6.14v-9.45h-6.14v9.45ZM660.69,1258.33h6.14v-9.45h-6.14v9.45ZM660.69,1233.15h6.14v-9.45h-6.14v9.45ZM660.69,1222.08h6.14v-9.45h-6.14v9.45ZM660.69,1196.71h6.14v-9.45h-6.14v9.45ZM660.69,1185.64h6.14v-9.45h-6.14v9.45ZM660.69,1160.27h6.14v-9.45h-6.14v9.45ZM660.69,1149.2h6.14v-9.45h-6.14v9.45ZM660.69,1123.83h6.14v-9.45h-6.14v9.45ZM660.69,1112.76h6.14v-9.45h-6.14v9.45ZM660.69,1087.39h6.14v-9.45h-6.14v9.45ZM660.69,1076.32h6.14v-9.45h-6.14v9.45ZM660.69,1050.95h6.14v-9.45h-6.14v9.45ZM660.69,1039.88h6.14v-9.45h-6.14v9.45ZM640,1342.29h6.14v-9.45h-6.14v9.45ZM640,1331.21h6.14v-9.45h-6.14v9.45ZM640,1305.85h6.14v-9.45h-6.14v9.45ZM640,1294.77h6.14v-9.45h-6.14v9.45ZM640,1269.41h6.14v-9.45h-6.14v9.45ZM640,1258.33h6.14v-9.45h-6.14v9.45ZM640,1233.15h6.14v-9.45h-6.14v9.45ZM640,1222.08h6.14v-9.45h-6.14v9.45ZM640,1196.71h6.14v-9.45h-6.14v9.45ZM640,1185.64h6.14v-9.45h-6.14v9.45ZM640,1160.27h6.14v-9.45h-6.14v9.45ZM640,1149.2h6.14v-9.45h-6.14v9.45ZM640,1123.83h6.14v-9.45h-6.14v9.45ZM640,1112.76h6.14v-9.45h-6.14v9.45ZM640,1087.39h6.14v-9.45h-6.14v9.45ZM640,1076.32h6.14v-9.45h-6.14v9.45ZM640,1050.95h6.14v-9.45h-6.14v9.45ZM640,1039.88h6.14v-9.45h-6.14v9.45ZM628.84,1342.29h6.14v-9.45h-6.14v9.45ZM628.84,1331.21h6.14v-9.45h-6.14v9.45ZM628.84,1305.85h6.14v-9.45h-6.14v9.45ZM628.84,1294.77h6.14v-9.45h-6.14v9.45ZM628.84,1269.41h6.14v-9.45h-6.14v9.45ZM628.84,1258.33h6.14v-9.45h-6.14v9.45ZM628.84,1233.15h6.14v-9.45h-6.14v9.45ZM628.84,1222.08h6.14v-9.45h-6.14v9.45ZM628.84,1196.71h6.14v-9.45h-6.14v9.45ZM628.84,1185.64h6.14v-9.45h-6.14v9.45ZM628.84,1160.27h6.14v-9.45h-6.14v9.45ZM628.84,1149.2h6.14v-9.45h-6.14v9.45ZM628.84,1123.83h6.14v-9.45h-6.14v9.45ZM628.84,1112.76h6.14v-9.45h-6.14v9.45ZM628.84,1087.39h6.14v-9.45h-6.14v9.45ZM628.84,1076.32h6.14v-9.45h-6.14v9.45ZM628.84,1050.95h6.14v-9.45h-6.14v9.45ZM628.84,1039.88h6.14v-9.45h-6.14v9.45ZM569.46,1382.5h5.85v-9.71h-5.85v9.71ZM569.46,1371.12h5.85v-9.71h-5.85v9.71ZM569.46,1345.07h5.85v-9.71h-5.85v9.71ZM569.46,1333.69h5.85v-9.71h-5.85v9.71ZM569.46,1307.64h5.85v-9.71h-5.85v9.71ZM569.46,1296.26h5.85v-9.71h-5.85v9.71ZM569.46,1270.21h5.85v-9.71h-5.85v9.71ZM569.46,1258.83h5.85v-9.71h-5.85v9.71ZM566.63,1128.49h7.09v-9.45h-7.09v9.45ZM566.63,1117.41h7.09v-9.45h-7.09v9.45ZM566.63,1092.05h7.09v-9.45h-7.09v9.45ZM566.63,1080.97h7.09v-9.45h-7.09v9.45ZM566.63,1055.61h7.09v-9.45h-7.09v9.45ZM566.63,1044.53h7.09v-9.45h-7.09v9.45ZM566.63,1019.17h7.09v-9.45h-7.09v9.45ZM566.63,1008.09h7.09v-9.45h-7.09v9.45ZM566.63,982.73h7.09v-9.45h-7.09v9.45ZM566.63,971.65h7.09v-9.45h-7.09v9.45ZM566.63,946.29h7.09v-9.45h-7.09v9.45ZM566.63,935.21h7.09v-9.45h-7.09v9.45ZM566.63,912.16h7.09v-9.45h-7.09v9.45ZM566.63,901.08h7.09v-9.45h-7.09v9.45ZM566.63,874.86h7.09v-9.45h-7.09v9.45ZM566.63,863.78h7.09v-9.45h-7.09v9.45ZM450.96,1220.85l7.36,4.13c.29-.54.68-.99,1.15-1.33l-4.94-6.71c-1.47.98-2.71,2.29-3.57,3.92ZM458.7,1227.08h7.81c-.15-4.52-7.66-4.47-7.81,0ZM469.79,1216.53c-1.94-1.08-4.17-1.69-6.42-1.82v8.06c.52.08,1.03.24,1.5.46l4.92-6.69ZM453.53,902.59v9.45h7.09v-9.45h-7.09ZM460.62,900.97v-9.45h-7.09v9.45h7.09ZM453.53,925.76v9.45h7.09v-9.45h-7.09ZM453.53,936.84v9.45h7.09v-9.45h-7.09ZM453.53,962.2v9.45h7.09v-9.45h-7.09ZM453.53,973.28v9.45h7.09v-9.45h-7.09ZM453.53,998.64v9.45h7.09v-9.45h-7.09ZM453.53,1009.72v9.45h7.09v-9.45h-7.09ZM453.53,1035.08v9.45h7.09v-9.45h-7.09ZM453.53,1046.16v9.45h7.09v-9.45h-7.09ZM453.53,1071.52v9.45h7.09v-9.45h-7.09ZM453.53,1082.6v9.45h7.09v-9.45h-7.09ZM453.53,1107.96v9.45h7.09v-9.45h-7.09ZM453.53,1119.04v9.45h7.09v-9.45h-7.09ZM455.48,1216.35l4.97,6.75c.57-.23,1.18-.36,1.81-.39v-8.04c-2.39.02-4.75.58-6.78,1.68ZM462.22,1251.3h-5.25v7.63h5.25v-7.63ZM462.22,1250.11v-6.72h-5.25v6.72h5.25ZM462.22,1242.2v-6.61h-5.25v6.61h5.25ZM462.22,1234.4v-6.24h-5.25v6.24h5.25ZM453.44,887.98h20.06c.02-12.57-20.55-12.81-20.06,0ZM473.51,802.34h-7.09v9.45h7.09v-9.45ZM473.51,813.42h-7.09v9.45h7.09v-9.45ZM473.51,891.52h-7.09v9.45h7.09v-9.45ZM473.51,902.59h-7.09v9.45h7.09v-9.45ZM473.51,925.76h-7.09v9.45h7.09v-9.45ZM473.51,936.84h-7.09v9.45h7.09v-9.45ZM473.51,962.2h-7.09v9.45h7.09v-9.45ZM473.51,973.28h-7.09v9.45h7.09v-9.45ZM473.51,998.64h-7.09v9.45h7.09v-9.45ZM473.51,1009.72h-7.09v9.45h7.09v-9.45ZM473.51,1035.08h-7.09v9.45h7.09v-9.45ZM473.51,1046.16h-7.09v9.45h7.09v-9.45ZM473.51,1071.52h-7.09v9.45h7.09v-9.45ZM473.51,1082.6h-7.09v9.45h7.09v-9.45ZM473.51,1107.96h-7.09v9.45h7.09v-9.45ZM473.51,1119.04h-7.09v9.45h7.09v-9.45ZM470.73,1217.1l-4.92,6.68c.44.35.8.78,1.08,1.29l7.41-4.15c-.9-1.56-2.12-2.84-3.57-3.82ZM474.8,1221.91l-7.51,4.21c.07.3.1.62.11.96h8.45c0-1.96-.38-3.68-1.06-5.17ZM475.89,1228.16h-6.15v6.24h6.15v-6.24ZM475.89,1235.59h-6.15v6.61h6.15v-6.61ZM475.89,1243.39h-6.15v6.72h6.15v-6.72ZM475.89,1251.3h-6.15v7.63h6.15v-7.63ZM496.68,1227.08h7.81c-.15-4.52-7.66-4.47-7.81,0ZM507.77,1216.53c-1.94-1.08-4.17-1.69-6.42-1.82v8.06c.52.08,1.03.24,1.5.46l4.92-6.69ZM490.3,902.59v9.45h7.09v-9.45h-7.09ZM497.39,900.97v-9.45h-7.09v9.45h7.09ZM490.3,925.76v9.45h7.09v-9.45h-7.09ZM490.3,936.84v9.45h7.09v-9.45h-7.09ZM490.3,962.2v9.45h7.09v-9.45h-7.09ZM490.3,973.28v9.45h7.09v-9.45h-7.09ZM490.3,998.64v9.45h7.09v-9.45h-7.09ZM490.3,1009.72v9.45h7.09v-9.45h-7.09ZM490.3,1035.08v9.45h7.09v-9.45h-7.09ZM490.3,1046.16v9.45h7.09v-9.45h-7.09ZM490.3,1071.52v9.45h7.09v-9.45h-7.09ZM490.3,1082.6v9.45h7.09v-9.45h-7.09ZM490.3,1107.96v9.45h7.09v-9.45h-7.09ZM490.3,1119.04v9.45h7.09v-9.45h-7.09ZM493.46,1216.35l4.97,6.75c.57-.23,1.18-.36,1.81-.39v-8.04c-2.39.02-4.75.58-6.78,1.68ZM500.2,1251.3h-5.25v7.63h5.25v-7.63ZM500.2,1250.11v-6.72h-5.25v6.72h5.25ZM500.2,1242.2v-6.61h-5.25v6.61h5.25ZM500.2,1234.4v-6.24h-5.25v6.24h5.25ZM497.46,1223.64l-4.94-6.71c-1.47.98-2.71,2.29-3.57,3.92l7.36,4.13c.29-.54.68-.99,1.15-1.33ZM497.39,802.34h-7.09v9.45h7.09v-9.45ZM497.39,813.42h-7.09v9.45h7.09v-9.45ZM490.21,887.98h20.06c.02-12.57-20.55-12.81-20.06,0ZM510.28,802.34h-7.09v9.45h7.09v-9.45ZM510.28,813.42h-7.09v9.45h7.09v-9.45ZM510.28,891.52h-7.09v9.45h7.09v-9.45ZM510.28,902.59h-7.09v9.45h7.09v-9.45ZM510.28,925.76h-7.09v9.45h7.09v-9.45ZM510.28,936.84h-7.09v9.45h7.09v-9.45ZM510.28,962.2h-7.09v9.45h7.09v-9.45ZM510.28,973.28h-7.09v9.45h7.09v-9.45ZM510.28,998.64h-7.09v9.45h7.09v-9.45ZM510.28,1009.72h-7.09v9.45h7.09v-9.45ZM510.28,1035.08h-7.09v9.45h7.09v-9.45ZM510.28,1046.16h-7.09v9.45h7.09v-9.45ZM510.28,1071.52h-7.09v9.45h7.09v-9.45ZM510.28,1082.6h-7.09v9.45h7.09v-9.45ZM510.28,1107.96h-7.09v9.45h7.09v-9.45ZM510.28,1119.04h-7.09v9.45h7.09v-9.45ZM508.71,1217.1l-4.92,6.68c.44.35.8.78,1.08,1.29l7.41-4.15c-.9-1.56-2.12-2.84-3.57-3.82ZM512.78,1221.91l-7.51,4.21c.07.3.1.62.11.96h8.45c0-1.96-.38-3.68-1.06-5.17ZM513.87,1228.16h-6.15v6.24h6.15v-6.24ZM513.87,1235.59h-6.15v6.61h6.15v-6.61ZM513.87,1243.39h-6.15v6.72h6.15v-6.72ZM513.87,1251.3h-6.15v7.63h6.15v-7.63ZM533.75,1227.08h7.81c-.15-4.52-7.66-4.47-7.81,0ZM544.84,1216.53c-1.94-1.08-4.17-1.69-6.42-1.82v8.06c.52.08,1.03.24,1.5.46l4.92-6.69ZM527.07,902.59v9.45h7.09v-9.45h-7.09ZM534.17,900.97v-9.45h-7.09v9.45h7.09ZM527.07,925.76v9.45h7.09v-9.45h-7.09ZM527.07,936.84v9.45h7.09v-9.45h-7.09ZM527.07,962.2v9.45h7.09v-9.45h-7.09ZM527.07,973.28v9.45h7.09v-9.45h-7.09ZM527.07,998.64v9.45h7.09v-9.45h-7.09ZM527.07,1009.72v9.45h7.09v-9.45h-7.09ZM527.07,1035.08v9.45h7.09v-9.45h-7.09ZM527.07,1046.16v9.45h7.09v-9.45h-7.09ZM527.07,1071.52v9.45h7.09v-9.45h-7.09ZM527.07,1082.6v9.45h7.09v-9.45h-7.09ZM527.07,1107.96v9.45h7.09v-9.45h-7.09ZM527.07,1119.04v9.45h7.09v-9.45h-7.09ZM530.53,1216.35l4.97,6.75c.57-.23,1.18-.36,1.81-.39v-8.04c-2.39.02-4.75.58-6.78,1.68ZM537.27,1251.3h-5.25v7.63h5.25v-7.63ZM537.27,1250.11v-6.72h-5.25v6.72h5.25ZM537.27,1242.2v-6.61h-5.25v6.61h5.25ZM537.27,1234.4v-6.24h-5.25v6.24h5.25ZM534.53,1223.64l-4.94-6.71c-1.47.98-2.71,2.29-3.57,3.92l7.36,4.13c.29-.54.68-.99,1.15-1.33ZM534.17,802.34h-7.09v9.45h7.09v-9.45ZM534.17,813.42h-7.09v9.45h7.09v-9.45ZM526.99,887.98h20.06c.02-12.57-20.55-12.81-20.06,0ZM547.05,891.52h-7.09v9.45h7.09v-9.45ZM547.05,902.59h-7.09v9.45h7.09v-9.45ZM547.05,925.76h-7.09v9.45h7.09v-9.45ZM547.05,936.84h-7.09v9.45h7.09v-9.45ZM547.05,962.2h-7.09v9.45h7.09v-9.45ZM547.05,973.28h-7.09v9.45h7.09v-9.45ZM547.05,998.64h-7.09v9.45h7.09v-9.45ZM547.05,1009.72h-7.09v9.45h7.09v-9.45ZM547.05,1035.08h-7.09v9.45h7.09v-9.45ZM547.05,1046.16h-7.09v9.45h7.09v-9.45ZM547.05,1071.52h-7.09v9.45h7.09v-9.45ZM547.05,1082.6h-7.09v9.45h7.09v-9.45ZM547.05,1107.96h-7.09v9.45h7.09v-9.45ZM547.05,1119.04h-7.09v9.45h7.09v-9.45ZM545.78,1217.1l-4.92,6.68c.44.35.8.78,1.08,1.29l7.41-4.15c-.9-1.56-2.12-2.84-3.57-3.82ZM549.85,1221.91l-7.51,4.21c.07.3.1.62.11.96h8.45c0-1.96-.38-3.68-1.06-5.17ZM550.94,1228.16h-6.15v6.24h6.15v-6.24ZM550.94,1235.59h-6.15v6.61h6.15v-6.61ZM550.94,1243.39h-6.15v6.72h6.15v-6.72ZM550.94,1251.3h-6.15v7.63h6.15v-7.63ZM550.94,1260.11h-6.15v6.69h6.15v-6.69ZM539.96,1382.35h7.09v-23.08h-7.09v23.08ZM539.96,1355.29h7.09v-23.08h-7.09v23.08ZM539.96,1307.52h7.09v-9.45h-7.09v9.45ZM539.96,1296.45h7.09v-9.45h-7.09v9.45ZM538.46,1266.81h5.14v-6.69h-5.14v6.69ZM538.46,1258.92h5.14v-7.63h-5.14v7.63ZM538.46,1250.11h5.14v-6.72h-5.14v6.72ZM538.46,1242.2h5.14v-6.61h-5.14v6.61ZM538.46,1234.4h5.14v-6.24h-5.14v6.24ZM537.27,1260.11h-5.25v6.69h5.25v-6.69ZM527.07,1382.35h7.09v-23.08h-7.09v23.08ZM527.07,1355.29h7.09v-23.08h-7.09v23.08ZM527.07,1307.52h7.09v-9.45h-7.09v9.45ZM527.07,1296.45h7.09v-9.45h-7.09v9.45ZM524.74,1266.81h6.09v-6.69h-6.09v6.69ZM524.74,1258.92h6.09v-7.63h-6.09v7.63ZM524.74,1250.11h6.09v-6.72h-6.09v6.72ZM524.74,1242.2h6.09v-6.61h-6.09v6.61ZM524.74,1234.4h6.09v-6.24h-6.09v6.24ZM532.9,1227.08c0-.38.03-.73.1-1.06l-7.45-4.18c-.61,1.51-.93,3.25-.86,5.23h8.21ZM513.87,1260.11h-6.15v6.69h6.15v-6.69ZM503.19,1382.35h7.09v-23.08h-7.09v23.08ZM503.19,1355.29h7.09v-23.08h-7.09v23.08ZM503.19,1307.52h7.09v-9.45h-7.09v9.45ZM503.19,1296.45h7.09v-9.45h-7.09v9.45ZM501.39,1266.81h5.14v-6.69h-5.14v6.69ZM501.39,1258.92h5.14v-7.63h-5.14v7.63ZM501.39,1250.11h5.14v-6.72h-5.14v6.72ZM501.39,1242.2h5.14v-6.61h-5.14v6.61ZM501.39,1234.4h5.14v-6.24h-5.14v6.24ZM500.2,1260.11h-5.25v6.69h5.25v-6.69ZM490.3,1382.35h7.09v-23.08h-7.09v23.08ZM490.3,1355.29h7.09v-23.08h-7.09v23.08ZM490.3,1307.52h7.09v-9.45h-7.09v9.45ZM490.3,1296.45h7.09v-9.45h-7.09v9.45ZM487.66,1266.81h6.09v-6.69h-6.09v6.69ZM487.66,1258.92h6.09v-7.63h-6.09v7.63ZM487.66,1250.11h6.09v-6.72h-6.09v6.72ZM487.66,1242.2h6.09v-6.61h-6.09v6.61ZM487.66,1234.4h6.09v-6.24h-6.09v6.24ZM495.82,1227.08c0-.38.03-.73.1-1.06l-7.45-4.18c-.61,1.51-.93,3.25-.86,5.23h8.21ZM475.89,1260.11h-6.15v6.69h6.15v-6.69ZM466.42,1382.35h7.09v-23.08h-7.09v23.08ZM466.42,1355.29h7.09v-23.08h-7.09v23.08ZM466.42,1307.52h7.09v-9.45h-7.09v9.45ZM466.42,1296.45h7.09v-9.45h-7.09v9.45ZM463.41,1266.81h5.14v-6.69h-5.14v6.69ZM463.41,1258.92h5.14v-7.63h-5.14v7.63ZM463.41,1250.11h5.14v-6.72h-5.14v6.72ZM463.41,1242.2h5.14v-6.61h-5.14v6.61ZM463.41,1234.4h5.14v-6.24h-5.14v6.24ZM462.22,1260.11h-5.25v6.69h5.25v-6.69ZM453.53,1382.35h7.09v-23.08h-7.09v23.08ZM453.53,1355.29h7.09v-23.08h-7.09v23.08ZM453.53,1307.52h7.09v-9.45h-7.09v9.45ZM453.53,1296.45h7.09v-9.45h-7.09v9.45ZM449.69,1266.81h6.09v-6.69h-6.09v6.69ZM449.69,1258.92h6.09v-7.63h-6.09v7.63ZM449.69,1250.11h6.09v-6.72h-6.09v6.72ZM449.69,1242.2h6.09v-6.61h-6.09v6.61ZM449.69,1234.4h6.09v-6.24h-6.09v6.24ZM457.85,1227.08c0-.38.03-.73.1-1.06l-7.45-4.18c-.61,1.51-.93,3.25-.86,5.23h8.21ZM434.93,854.33h-7.09v9.45h7.09v-9.45ZM434.93,865.41h-7.09v9.45h7.09v-9.45ZM434.93,891.63h-7.09v9.45h7.09v-9.45ZM434.93,902.71h-7.09v9.45h7.09v-9.45ZM434.93,925.76h-7.09v9.45h7.09v-9.45ZM434.93,936.84h-7.09v9.45h7.09v-9.45ZM434.93,962.2h-7.09v9.45h7.09v-9.45ZM434.93,973.28h-7.09v9.45h7.09v-9.45ZM434.93,998.64h-7.09v9.45h7.09v-9.45ZM434.93,1009.72h-7.09v9.45h7.09v-9.45ZM434.93,1035.08h-7.09v9.45h7.09v-9.45ZM434.93,1046.16h-7.09v9.45h7.09v-9.45ZM434.93,1071.52h-7.09v9.45h7.09v-9.45ZM434.93,1082.6h-7.09v9.45h7.09v-9.45ZM434.93,1107.96h-7.09v9.45h7.09v-9.45ZM434.93,1119.04h-7.09v9.45h7.09v-9.45ZM427.57,1382.5h5.85v-9.71h-5.85v9.71ZM427.57,1371.12h5.85v-9.71h-5.85v9.71ZM427.57,1345.07h5.85v-9.71h-5.85v9.71ZM427.57,1333.69h5.85v-9.71h-5.85v9.71ZM427.57,1307.64h5.85v-9.71h-5.85v9.71ZM427.57,1296.26h5.85v-9.71h-5.85v9.71ZM427.57,1270.21h5.85v-9.71h-5.85v9.71ZM427.57,1258.83h5.85v-9.71h-5.85v9.71ZM388.42,1379.67h2.85v-4h-2.85v4ZM388.42,1374.83h2.85v-1.17h-2.85v1.17ZM388.42,1372.81h2.85v-10.36h-2.85v10.36ZM388.42,1361.61h2.85v-1.17h-2.85v1.17ZM388.42,1359.59h2.85v-8.4h-2.85v8.4ZM388.42,1350.34h2.85v-1.17h-2.85v1.17ZM388.42,1348.33h2.85v-3.84h-2.85v3.84ZM388.42,1310.22h2.85v-4h-2.85v4ZM388.42,1305.37h2.85v-1.17h-2.85v1.17ZM388.42,1303.36h2.85v-10.36h-2.85v10.36ZM388.42,1292.15h2.85v-1.17h-2.85v1.17ZM388.42,1290.14h2.85v-8.4h-2.85v8.4ZM388.42,1280.89h2.85v-1.17h-2.85v1.17ZM388.42,1278.87h2.85v-3.84h-2.85v3.84ZM388.42,1267.72h2.85v-4h-2.85v4ZM388.42,1262.88h2.85v-1.17h-2.85v1.17ZM388.42,1260.86h2.85v-10.36h-2.85v10.36ZM388.42,1249.65h2.85v-1.17h-2.85v1.17ZM388.42,1247.64h2.85v-8.4h-2.85v8.4ZM388.42,1238.39h2.85v-1.17h-2.85v1.17ZM388.42,1236.38h2.85v-3.84h-2.85v3.84ZM383.68,1379.67h3.89v-4h-3.89v4ZM383.68,1374.83h3.89v-1.17h-3.89v1.17ZM383.68,1372.81h3.89v-10.36h-3.89v10.36ZM383.68,1361.61h3.89v-1.17h-3.89v1.17ZM383.68,1359.59h3.89v-8.4h-3.89v8.4ZM383.68,1350.34h3.89v-1.17h-3.89v1.17ZM383.68,1348.33h3.89v-3.84h-3.89v3.84ZM383.68,1310.22h3.89v-4h-3.89v4ZM383.68,1305.37h3.89v-1.17h-3.89v1.17ZM383.68,1303.36h3.89v-10.36h-3.89v10.36ZM383.68,1292.15h3.89v-1.17h-3.89v1.17ZM383.68,1290.14h3.89v-8.4h-3.89v8.4ZM383.68,1280.89h3.89v-1.17h-3.89v1.17ZM383.68,1278.87h3.89v-3.84h-3.89v3.84ZM383.68,1267.72h3.89v-4h-3.89v4ZM383.68,1262.88h3.89v-1.17h-3.89v1.17ZM383.68,1260.86h3.89v-10.36h-3.89v10.36ZM383.68,1249.65h3.89v-1.17h-3.89v1.17ZM383.68,1247.64h3.89v-8.4h-3.89v8.4ZM383.68,1238.39h3.89v-1.17h-3.89v1.17ZM383.68,1236.38h3.89v-3.84h-3.89v3.84ZM378.95,1379.67h3.89v-4h-3.89v4ZM378.95,1374.83h3.89v-1.17h-3.89v1.17ZM378.95,1372.81h3.89v-10.36h-3.89v10.36ZM378.95,1361.61h3.89v-1.17h-3.89v1.17ZM378.95,1359.59h3.89v-8.4h-3.89v8.4ZM378.95,1350.34h3.89v-1.17h-3.89v1.17ZM378.95,1348.33h3.89v-3.84h-3.89v3.84ZM378.95,1310.22h3.89v-4h-3.89v4ZM378.95,1305.37h3.89v-1.17h-3.89v1.17ZM378.95,1303.36h3.89v-10.36h-3.89v10.36ZM378.95,1292.15h3.89v-1.17h-3.89v1.17ZM378.95,1290.14h3.89v-8.4h-3.89v8.4ZM378.95,1280.89h3.89v-1.17h-3.89v1.17ZM378.95,1278.87h3.89v-3.84h-3.89v3.84ZM378.95,1267.72h3.89v-4h-3.89v4ZM378.95,1262.88h3.89v-1.17h-3.89v1.17ZM378.95,1260.86h3.89v-10.36h-3.89v10.36ZM378.95,1249.65h3.89v-1.17h-3.89v1.17ZM378.95,1247.64h3.89v-8.4h-3.89v8.4ZM378.95,1238.39h3.89v-1.17h-3.89v1.17ZM378.95,1236.38h3.89v-3.84h-3.89v3.84ZM375.51,1379.67h2.59v-4h-2.59v4ZM375.51,1374.83h2.59v-1.17h-2.59v1.17ZM375.51,1372.81h2.59v-10.36h-2.59v10.36ZM375.51,1361.61h2.59v-1.17h-2.59v1.17ZM375.51,1359.59h2.59v-8.4h-2.59v8.4ZM375.51,1350.34h2.59v-1.17h-2.59v1.17ZM375.51,1348.33h2.59v-3.84h-2.59v3.84ZM375.51,1310.22h2.59v-4h-2.59v4ZM375.51,1305.37h2.59v-1.17h-2.59v1.17ZM375.51,1303.36h2.59v-10.36h-2.59v10.36ZM375.51,1292.15h2.59v-1.17h-2.59v1.17ZM375.51,1290.14h2.59v-8.4h-2.59v8.4ZM375.51,1280.89h2.59v-1.17h-2.59v1.17ZM375.51,1278.87h2.59v-3.84h-2.59v3.84ZM375.51,1267.72h2.59v-4h-2.59v4ZM375.51,1262.88h2.59v-1.17h-2.59v1.17ZM375.51,1260.86h2.59v-10.36h-2.59v10.36ZM375.51,1249.65h2.59v-1.17h-2.59v1.17ZM375.51,1247.64h2.59v-8.4h-2.59v8.4ZM375.51,1238.39h2.59v-1.17h-2.59v1.17ZM375.51,1236.38h2.59v-3.84h-2.59v3.84ZM338.65,1199.35h4.2v-34.69h-4.2v34.69ZM315.21,1199.81h-1.93v7.79h1.93v-7.79ZM319.11,1199.81h-1.93v7.79h1.93v-7.79ZM321.6,1387.77h2.43v-12.48h-2.43v12.48ZM321.6,1373.36h2.43v-12.48h-2.43v12.48ZM321.08,1207.6h1.93v-7.79h-1.93v7.79ZM316.7,1387.77h2.43v-12.48h-2.43v12.48ZM316.7,1373.36h2.43v-12.48h-2.43v12.48ZM312.97,1235.37h3.6v-4.78h-3.6v4.78ZM265.79,1199.81h-1.93v7.79h1.93v-7.79ZM271.66,1199.81v7.79h1.93v-7.79h-1.93ZM285.49,1324.01v-1.82h-4.05v1.82h4.05ZM281.44,1325.34v6.24h4.05v-6.24h-4.05ZM285.49,1320.87v-16.19h-4.05v16.19h4.05ZM285.49,1303.35v-1.82h-4.05v1.82h4.05ZM285.49,1300.2v-13.12h-4.05v13.12h4.05ZM285.49,1285.75v-1.82h-4.05v1.82h4.05ZM285.49,1282.6v-6.01h-4.05v6.01h4.05ZM281.5,1274.9h3.95v-10.4l-3.95,2.3v8.11ZM286.59,1199.81h-1.93v7.79h1.93v-7.79ZM290.5,1199.81h-1.93v7.79h1.93v-7.79ZM290.61,1262.56l-3.95,1.32v11.02h3.95v-12.35ZM292.89,1324.01v-1.82h-6.07v1.82h6.07ZM286.81,1325.34v6.24h6.07v-6.24h-6.07ZM292.89,1320.87v-16.19h-6.07v16.19h6.07ZM292.89,1303.35v-1.82h-6.07v1.82h6.07ZM292.89,1300.2v-13.12h-6.07v13.12h6.07ZM292.89,1285.75v-1.82h-6.07v1.82h6.07ZM292.89,1282.6v-6.01h-6.07v6.01h6.07ZM294.4,1199.81h-1.93v7.79h1.93v-7.79ZM295.34,1230.59h-3.6v4.78h3.6v-4.78ZM295.77,1262.29h-3.95v12.61h3.95v-12.61ZM300.29,1324.01v-1.82h-6.07v1.82h6.07ZM294.21,1325.34v6.24h6.07v-6.24h-6.07ZM300.29,1320.87v-16.19h-6.07v16.19h6.07ZM300.29,1303.35v-1.82h-6.07v1.82h6.07ZM300.29,1300.2v-13.12h-6.07v13.12h6.07ZM300.29,1285.75v-1.82h-6.07v1.82h6.07ZM300.29,1282.6v-6.01h-6.07v6.01h6.07ZM298.3,1199.81h-1.93v7.79h1.93v-7.79ZM296.97,1262.56v12.35h3.95v-11.02l-3.95-1.32ZM302.2,1199.81h-1.93v7.79h1.93v-7.79ZM306.06,1324.01v-1.82h-4.45v1.82h4.45ZM301.61,1325.34v6.24h4.45v-6.24h-4.45ZM306.06,1320.87v-16.19h-4.45v16.19h4.45ZM306.06,1303.35v-1.82h-4.45v1.82h4.45ZM306.06,1300.2v-13.12h-4.45v13.12h4.45ZM306.06,1285.75v-1.82h-4.45v1.82h4.45ZM306.06,1282.6v-6.01h-4.45v6.01h4.45ZM306.08,1266.8l-3.95-2.3v10.4h3.95v-8.11ZM309.37,1207.6h1.93v-7.79h-1.93v7.79ZM279.92,1386.98h26.21v-20.13h-.07c-.77-14.36-26.81-14.42-26.19.67h.05v19.46ZM275.56,1207.6h1.93v-7.79h-1.93v7.79ZM271.43,1235.37h3.6v-4.78h-3.6v4.78ZM268.53,1387.77h2.43v-12.48h-2.43v12.48ZM268.53,1373.36h2.43v-12.48h-2.43v12.48ZM267.76,1207.6h1.93v-7.79h-1.93v7.79ZM263.63,1387.77h2.43v-12.48h-2.43v12.48ZM263.63,1373.36h2.43v-12.48h-2.43v12.48ZM238.51,1199.35h4.2v-34.69h-4.2v34.69ZM210.84,1379.67h2.85v-4h-2.85v4ZM210.84,1374.83h2.85v-1.17h-2.85v1.17ZM210.84,1372.81h2.85v-10.36h-2.85v10.36ZM210.84,1361.61h2.85v-1.17h-2.85v1.17ZM210.84,1359.59h2.85v-8.4h-2.85v8.4ZM210.84,1350.34h2.85v-1.17h-2.85v1.17ZM210.84,1348.33h2.85v-3.84h-2.85v3.84ZM210.84,1310.22h2.85v-4h-2.85v4ZM210.84,1305.37h2.85v-1.17h-2.85v1.17ZM210.84,1303.36h2.85v-10.36h-2.85v10.36ZM210.84,1292.15h2.85v-1.17h-2.85v1.17ZM210.84,1290.14h2.85v-8.4h-2.85v8.4ZM210.84,1280.89h2.85v-1.17h-2.85v1.17ZM210.84,1278.87h2.85v-3.84h-2.85v3.84ZM210.84,1267.72h2.85v-4h-2.85v4ZM210.84,1262.88h2.85v-1.17h-2.85v1.17ZM210.84,1260.86h2.85v-10.36h-2.85v10.36ZM210.84,1249.65h2.85v-1.17h-2.85v1.17ZM210.84,1247.64h2.85v-8.4h-2.85v8.4ZM210.84,1238.39h2.85v-1.17h-2.85v1.17ZM210.84,1236.38h2.85v-3.84h-2.85v3.84ZM206.11,1379.67h3.89v-4h-3.89v4ZM206.11,1374.83h3.89v-1.17h-3.89v1.17ZM206.11,1372.81h3.89v-10.36h-3.89v10.36ZM206.11,1361.61h3.89v-1.17h-3.89v1.17ZM206.11,1359.59h3.89v-8.4h-3.89v8.4ZM206.11,1350.34h3.89v-1.17h-3.89v1.17ZM206.11,1348.33h3.89v-3.84h-3.89v3.84ZM206.11,1310.22h3.89v-4h-3.89v4ZM206.11,1305.37h3.89v-1.17h-3.89v1.17ZM206.11,1303.36h3.89v-10.36h-3.89v10.36ZM206.11,1292.15h3.89v-1.17h-3.89v1.17ZM206.11,1290.14h3.89v-8.4h-3.89v8.4ZM206.11,1280.89h3.89v-1.17h-3.89v1.17ZM206.11,1278.87h3.89v-3.84h-3.89v3.84ZM206.11,1267.72h3.89v-4h-3.89v4ZM206.11,1262.88h3.89v-1.17h-3.89v1.17ZM206.11,1260.86h3.89v-10.36h-3.89v10.36ZM206.11,1249.65h3.89v-1.17h-3.89v1.17ZM206.11,1247.64h3.89v-8.4h-3.89v8.4ZM206.11,1238.39h3.89v-1.17h-3.89v1.17ZM206.11,1236.38h3.89v-3.84h-3.89v3.84ZM201.37,1379.67h3.89v-4h-3.89v4ZM201.37,1374.83h3.89v-1.17h-3.89v1.17ZM201.37,1372.81h3.89v-10.36h-3.89v10.36ZM201.37,1361.61h3.89v-1.17h-3.89v1.17ZM201.37,1359.59h3.89v-8.4h-3.89v8.4ZM201.37,1350.34h3.89v-1.17h-3.89v1.17ZM201.37,1348.33h3.89v-3.84h-3.89v3.84ZM201.37,1310.22h3.89v-4h-3.89v4ZM201.37,1305.37h3.89v-1.17h-3.89v1.17ZM201.37,1303.36h3.89v-10.36h-3.89v10.36ZM201.37,1292.15h3.89v-1.17h-3.89v1.17ZM201.37,1290.14h3.89v-8.4h-3.89v8.4ZM201.37,1280.89h3.89v-1.17h-3.89v1.17ZM201.37,1278.87h3.89v-3.84h-3.89v3.84ZM201.37,1267.72h3.89v-4h-3.89v4ZM201.37,1262.88h3.89v-1.17h-3.89v1.17ZM201.37,1260.86h3.89v-10.36h-3.89v10.36ZM201.37,1249.65h3.89v-1.17h-3.89v1.17ZM201.37,1247.64h3.89v-8.4h-3.89v8.4ZM201.37,1238.39h3.89v-1.17h-3.89v1.17ZM201.37,1236.38h3.89v-3.84h-3.89v3.84ZM197.93,1379.67h2.59v-4h-2.59v4ZM197.93,1374.83h2.59v-1.17h-2.59v1.17ZM197.93,1372.81h2.59v-10.36h-2.59v10.36ZM197.93,1361.61h2.59v-1.17h-2.59v1.17ZM197.93,1359.59h2.59v-8.4h-2.59v8.4ZM197.93,1350.34h2.59v-1.17h-2.59v1.17ZM197.93,1348.33h2.59v-3.84h-2.59v3.84ZM197.93,1310.22h2.59v-4h-2.59v4ZM197.93,1305.37h2.59v-1.17h-2.59v1.17ZM197.93,1303.36h2.59v-10.36h-2.59v10.36ZM197.93,1292.15h2.59v-1.17h-2.59v1.17ZM197.93,1290.14h2.59v-8.4h-2.59v8.4ZM197.93,1280.89h2.59v-1.17h-2.59v1.17ZM197.93,1278.87h2.59v-3.84h-2.59v3.84ZM197.93,1267.72h2.59v-4h-2.59v4ZM197.93,1262.88h2.59v-1.17h-2.59v1.17ZM197.93,1260.86h2.59v-10.36h-2.59v10.36ZM197.93,1249.65h2.59v-1.17h-2.59v1.17ZM197.93,1247.64h2.59v-8.4h-2.59v8.4ZM197.93,1238.39h2.59v-1.17h-2.59v1.17ZM197.93,1236.38h2.59v-3.84h-2.59v3.84Z"/>
</svg>